<svg version="1.1" id="Layer_1" xmlns="http://www.w3.org/2000/svg" xmlns:xlink="http://www.w3.org/1999/xlink" x="0px" y="0px"
	 width="100%" viewBox="0 0 592 592" enable-background="new 0 0 592 592" xml:space="preserve">
<path fill="#000000" opacity="1.000000" stroke="none" 
	d="
M319.439819,474.455139 
	C317.172302,476.552277 315.885468,479.363647 312.705719,479.780396 
	C310.381744,477.992462 310.955505,475.501526 311.049500,473.288239 
	C312.379456,441.974762 311.432159,410.647034 311.671356,379.327423 
	C311.687225,377.245331 312.308380,374.949219 310.438110,373.146698 
	C307.866272,373.019165 306.710541,375.127625 305.246063,376.583466 
	C277.365326,404.299377 249.520828,432.051727 221.670685,459.798370 
	C215.536179,465.910065 208.860596,471.472412 203.183533,478.051178 
	C202.331619,479.038422 201.324829,480.255005 199.816772,479.647125 
	C198.133820,478.968658 198.135757,477.301025 198.230042,475.792023 
	C199.467667,455.980225 198.508865,436.148102 198.739395,416.327026 
	C198.785538,412.361389 200.039581,409.397125 202.851608,406.620819 
	C246.480759,363.546173 290.051544,320.412354 333.607941,277.264099 
	C339.760101,271.169617 345.710419,264.871338 351.868103,258.782623 
	C354.054108,256.621094 354.905457,254.222107 354.875153,251.195236 
	C354.761810,239.873184 355.170258,228.547440 353.775574,217.255402 
	C352.946075,210.539246 348.685638,204.842300 342.037567,203.271790 
	C336.385132,201.936478 330.599609,201.068451 324.827454,200.369720 
	C320.967194,199.902451 319.638458,198.046844 320.003326,194.378860 
	C320.355591,190.837677 321.338837,188.645844 325.722382,188.622574 
	C340.043091,188.546555 354.369751,189.170853 368.693604,188.247375 
	C371.954865,188.037125 372.875458,187.070007 373.148468,183.921555 
	C373.678894,177.805069 372.181427,172.422104 368.228729,167.190399 
	C366.912201,166.689209 364.304749,169.263229 363.092926,166.178482 
	C362.462341,164.573303 362.497833,162.871002 363.231354,161.308640 
	C364.482635,158.643524 366.750092,160.881302 368.386810,160.476959 
	C369.103821,159.047684 368.814026,157.785416 368.536285,156.481293 
	C366.677856,155.904266 364.377502,158.390900 363.160400,155.623138 
	C362.401184,153.896576 362.334534,151.956116 363.356110,150.322739 
	C364.926727,147.811401 366.816711,150.321320 368.687164,150.345947 
	C368.687164,149.076324 368.687164,147.943665 368.687164,146.398605 
	C366.284088,146.547745 363.182404,148.456787 362.514862,144.213425 
	C361.797729,139.654892 364.888214,139.092667 367.958557,138.880997 
	C369.855011,134.325058 366.258850,128.400726 369.843414,125.834526 
	C373.076508,123.519943 377.763824,121.483505 382.404205,121.870705 
	C386.803772,122.237816 391.065796,124.186539 394.017120,127.035835 
	C397.187073,130.096268 394.157745,135.057541 395.338898,139.395035 
	C397.550568,140.104462 400.566742,140.391739 400.149231,144.130646 
	C399.908600,146.285278 399.512360,148.393265 396.764862,147.995483 
	C393.593048,147.536301 393.776459,149.549591 393.403870,151.691818 
	C395.541229,151.594070 397.477631,148.696152 399.234833,151.563690 
	C400.280060,153.269363 399.998016,155.186447 399.097382,156.835724 
	C397.663940,159.460739 395.662476,157.627655 393.829773,157.200363 
	C392.683563,158.436249 392.515991,159.797760 393.111755,161.460114 
	C394.790161,161.712173 397.237762,159.790665 398.050385,162.774033 
	C398.534027,164.549698 398.773895,166.580826 397.329742,167.978104 
	C395.307770,169.934418 394.239899,167.285690 392.776154,166.633713 
	C390.482208,172.226364 386.328979,176.948608 387.050751,183.732040 
	C387.470001,187.672455 388.632843,188.912918 392.418915,188.835815 
	C401.080444,188.659439 409.748871,188.848709 418.412811,188.746902 
	C421.724640,188.707993 423.943085,189.552612 424.085388,193.334839 
	C424.222717,196.983917 423.691101,200.054977 419.247009,200.663940 
	C414.142609,201.363342 408.986328,201.550369 403.932831,202.793365 
	C395.490723,204.869873 391.273193,209.538712 390.090393,218.292969 
	C388.250488,231.910339 389.205414,245.587311 389.345154,259.222809 
	C389.413544,265.898071 387.256958,271.198334 383.222137,276.059753 
	C374.233032,286.890442 369.973633,299.358246 370.010895,313.384094 
	C370.020630,317.042450 369.737091,320.700684 369.686432,324.360352 
	C369.627869,328.590942 368.115173,331.617859 364.588196,334.479919 
	C359.899658,338.284607 362.881531,343.958679 362.337006,348.820770 
	C363.264679,348.918488 363.627045,349.070190 363.887543,348.966339 
	C366.224945,348.034302 366.986816,343.335907 370.616272,345.758850 
	C373.078918,347.402802 372.463135,355.221100 370.044739,357.717468 
	C366.338440,361.543152 362.511169,365.317627 363.584229,372.568512 
	C365.773376,369.038513 366.486786,365.696259 369.009735,363.560638 
	C371.466736,361.480865 373.543213,361.008240 374.323761,364.888733 
	C376.355652,374.990143 378.500793,385.078827 380.118042,395.249359 
	C380.949036,400.475281 379.325500,401.509979 373.826019,401.305389 
	C370.335083,401.175507 367.402039,398.426270 363.771545,399.246826 
	C363.159119,400.941376 364.251923,401.540527 365.370056,401.852966 
	C366.962830,402.298096 368.625549,402.776978 370.254395,402.763519 
	C381.630341,402.669464 381.451569,403.842407 380.205444,414.756927 
	C378.934784,425.886414 374.626801,430.558319 363.484161,432.269714 
	C362.055817,432.489105 361.120667,433.109955 360.124847,434.102051 
	C346.676422,447.500671 333.174469,460.845551 319.439819,474.455139 
M388.413086,159.520279 
	C387.303711,152.701385 390.217590,145.660446 387.623627,138.083328 
	C384.978760,144.645813 384.801392,163.108109 387.075073,165.990631 
	C388.535370,164.311356 387.842102,162.155960 388.413086,159.520279 
M374.218506,154.477127 
	C374.185211,163.924789 374.185211,163.924789 376.364136,166.795212 
	C375.173828,156.659317 377.679413,147.495499 375.622101,138.257889 
	C373.775940,143.206940 374.407227,148.391525 374.218506,154.477127 
z"/>
<path fill="#000000" opacity="1.000000" stroke="none" 
	d="
M237.966461,259.966980 
	C241.541336,256.583923 243.933823,252.412857 248.094177,250.340332 
	C250.509628,251.600128 250.172058,253.589066 250.042038,255.332596 
	C248.826416,271.635193 249.865799,287.955017 250.331696,304.224609 
	C250.631683,314.700378 247.687698,321.879791 239.998444,329.348480 
	C200.228165,367.977844 161.174545,407.345062 121.872215,446.456238 
	C111.487366,456.790619 101.108307,467.130768 90.721962,477.463623 
	C89.672234,478.507965 88.653641,479.902740 86.925453,479.142700 
	C85.399750,478.471741 85.761276,476.877747 85.760498,475.603607 
	C85.748070,455.282410 85.786514,434.961151 85.760536,414.640015 
	C85.756790,411.709106 87.178131,409.610901 89.130051,407.677887 
	C121.556107,375.565887 153.988998,343.460815 186.390320,311.323883 
	C203.532196,294.321930 220.616531,277.261932 237.966461,259.966980 
z"/>
<path fill="#000000" opacity="1.000000" stroke="none" 
	d="
M435.607056,368.653717 
	C442.041321,388.342560 437.200958,405.351044 424.165344,421.101837 
	C434.568848,423.278076 444.289581,422.779907 454.027802,422.471771 
	C470.879333,421.938538 479.237305,409.882568 487.555298,397.888733 
	C492.403076,390.898621 496.409454,383.339539 499.478363,375.419952 
	C501.825867,369.362122 505.642639,372.071289 509.273834,372.985962 
	C513.089722,373.947113 513.390625,376.375549 512.508118,379.904633 
	C508.024414,397.834961 502.543732,415.478394 497.535004,433.256927 
	C496.484619,436.985229 494.562317,438.315430 490.797943,438.308899 
	C458.315979,438.252686 425.810089,438.997742 393.368530,437.865845 
	C385.393158,437.587585 376.855713,437.002808 368.803925,435.854340 
	C368.699097,433.488373 369.932495,433.147827 370.965240,432.724030 
	C381.168304,428.537201 385.467072,420.346405 385.837402,409.918945 
	C386.016449,404.876221 387.677704,402.252075 392.758728,400.673218 
	C404.652740,396.977478 411.402100,385.590149 409.715424,373.413910 
	C408.230438,362.693695 398.157013,354.258972 386.098267,353.292908 
	C382.932068,353.039276 378.521332,355.144165 377.040710,350.354279 
	C375.363495,344.928314 373.997223,339.369415 378.626801,334.387177 
	C387.432220,324.911072 393.681946,314.190735 395.271820,301.013947 
	C396.114868,294.026825 394.094696,287.481323 393.162933,280.767700 
	C392.732849,277.668945 393.529663,276.420715 396.748627,276.549469 
	C408.678040,277.026611 422.390198,287.008392 425.423981,298.217285 
	C427.821198,307.074158 426.131622,315.703979 422.197296,323.925934 
	C420.835175,326.772522 419.267181,329.586761 418.407654,332.591492 
	C417.246124,336.651978 418.653381,340.400391 420.745880,343.999176 
	C425.505493,352.184967 432.225098,359.182251 435.607056,368.653717 
M404.815735,420.823120 
	C408.446198,420.840851 411.994110,421.239105 415.406982,419.024078 
	C435.076874,406.257904 439.815277,378.828827 425.534454,360.273926 
	C421.138519,354.562347 415.851196,349.739136 410.894226,344.578796 
	C405.859985,339.337952 405.822693,335.720459 410.341766,330.144745 
	C412.644836,327.303162 415.007233,324.464264 416.925354,321.365753 
	C420.693665,315.278564 421.787598,308.662872 419.604523,301.727783 
	C418.092651,296.924866 413.478638,293.333466 408.876068,293.311401 
	C403.612915,293.286194 401.745789,296.975006 400.753082,301.270355 
	C397.704742,314.459839 392.720764,326.682770 383.090393,336.526611 
	C380.063873,339.620270 379.857880,342.929169 381.336792,346.608582 
	C382.716583,350.041351 385.863953,348.760956 388.318787,348.884399 
	C404.492432,349.697906 416.679932,364.382141 414.588776,380.290771 
	C413.235596,390.584930 407.494934,398.065765 399.999664,404.490570 
	C396.537628,407.458191 393.685181,410.424530 394.799286,415.468353 
	C395.933441,420.602814 400.466736,419.742157 404.815735,420.823120 
z"/>
<path fill="#000000" opacity="1.000000" stroke="none" 
	d="
M399.757660,378.313080 
	C399.601074,386.594543 397.391235,393.411285 390.114471,397.688354 
	C387.127716,399.443878 385.244629,398.695251 384.892761,395.309875 
	C383.811707,384.909515 381.527618,374.722717 379.730408,364.447906 
	C378.782227,359.027191 380.044800,358.177399 385.297607,359.684143 
	C394.491699,362.321411 398.632843,368.878754 399.757660,378.313080 
z"/>
<path fill="#000000" opacity="1.000000" stroke="none" 
	d="
M388.829956,306.585175 
	C385.137543,312.533936 383.013245,319.228607 376.800110,322.986145 
	C372.010040,314.974152 380.568420,291.315063 390.402496,285.444061 
	C394.014648,292.788757 391.295898,299.506195 388.829956,306.585175 
z"/>
</svg>