<?xml version="1.0" encoding="UTF-8"?>
<!DOCTYPE svg PUBLIC "-//W3C//DTD SVG 1.1//EN" "http://www.w3.org/Graphics/SVG/1.1/DTD/svg11.dtd">
<!-- Creator: CorelDRAW -->
<svg xmlns="http://www.w3.org/2000/svg" xml:space="preserve" width="210mm" height="297mm" version="1.1" style="shape-rendering:geometricPrecision; text-rendering:geometricPrecision; image-rendering:optimizeQuality; fill-rule:evenodd; clip-rule:evenodd"
viewBox="0 0 21000 29700"
 xmlns:xlink="http://www.w3.org/1999/xlink">
 <defs>
  <style type="text/css">
   <![CDATA[
    .fil5 {fill:#082B57}
    .fil4 {fill:#163862}
    .fil1 {fill:#183A64}
    .fil2 {fill:#A3BAC4}
    .fil0 {fill:#ACE6F6}
    .fil3 {fill:#DD741F}
    .fil6 {fill:#E6EDEF}
   ]]>
  </style>
 </defs>
 <g id="Layer_x0020_1">
  <metadata id="CorelCorpID_0Corel-Layer"/>
  <g id="Politeknik_x0020_Negeri_x0020_Batam.cdr">
   <path class="fil0" d="M19456 12947c-22,133 -41,268 -67,401 -118,617 -362,1179 -717,1699 -217,317 -457,614 -732,880 -476,461 -1006,850 -1582,1180 -913,524 -1891,878 -2912,1112 -410,94 -828,158 -1246,210 -381,48 -767,63 -1151,93 -117,9 -233,20 -379,32 138,-159 257,-290 369,-426 281,-345 569,-685 836,-1040 310,-411 618,-826 896,-1258 282,-436 541,-888 785,-1346 264,-500 475,-1025 581,-1584 86,-457 111,-914 -63,-1360 -186,-478 -546,-779 -1009,-964 -259,-103 -533,-149 -814,-161 -922,-40 -1794,188 -2656,477 -684,230 -1350,503 -1998,821 -481,236 -965,465 -1435,721 -597,324 -1189,660 -1769,1015 -692,424 -1370,872 -2054,1311 -53,34 -77,17 -105,-31 -231,-398 -387,-824 -492,-1272 -86,-374 -107,-752 -82,-1129 30,-454 147,-892 324,-1311 190,-448 436,-862 758,-1227 145,-164 289,-331 443,-486 438,-438 934,-801 1468,-1114 900,-529 1863,-903 2879,-1134 439,-99 885,-176 1331,-241 340,-49 685,-63 1028,-93 24,-3 48,-15 72,-22 395,0 791,0 1186,0 150,15 300,29 449,45 272,29 545,54 816,89 593,74 1173,206 1745,374 1027,301 1992,733 2869,1351 441,311 849,659 1205,1068 349,400 655,828 857,1319 112,273 193,559 275,844 45,157 62,323 91,485 0,224 0,448 0,672z"/>
   <path class="fil1" d="M1544 20358c362,0 724,-1 1086,0 287,0 490,141 630,384 102,178 140,373 164,572 42,348 -200,804 -516,957 -69,33 -151,52 -228,55 -227,7 -454,2 -688,2 0,229 0,450 0,672 -150,0 -299,0 -448,0 0,-881 0,-1761 0,-2642zm451 1612l0 0c167,0 324,0 480,0 159,0 278,-74 368,-203 126,-181 137,-389 103,-591 -32,-188 -120,-383 -326,-428 -201,-45 -415,-30 -625,-42 0,434 0,843 0,1264z"/>
   <path class="fil1" d="M3497 16218c270,-156 522,-307 778,-450 506,-281 1031,-522 1582,-699 356,-114 716,-206 1091,-245 496,-52 978,-20 1413,235 410,241 716,582 793,1071 72,459 -77,874 -308,1266 -183,310 -406,588 -652,850 -54,58 -107,66 -171,51 -313,-72 -631,-131 -937,-227 -448,-140 -896,-288 -1327,-471 -415,-177 -818,-388 -1210,-613 -369,-211 -717,-459 -1052,-768z"/>
   <path class="fil0" d="M12166 11890c523,253 862,649 976,1222 108,543 -12,1060 -186,1570 -194,569 -477,1095 -789,1607 -338,556 -726,1076 -1126,1588 -156,198 -329,383 -485,581 -102,130 -236,81 -360,83 -100,2 -200,-18 -315,-30 102,-128 207,-249 302,-378 350,-474 704,-946 1042,-1428 403,-573 744,-1184 1035,-1821 223,-487 403,-992 452,-1530 46,-505 -42,-979 -421,-1358 -38,-38 -83,-71 -125,-106z"/>
   <path class="fil2" d="M17780 20790c-212,0 -404,0 -609,0 0,489 0,972 0,1463 -167,0 -321,0 -483,0 0,-627 0,-1252 0,-1890 38,-1 78,-5 117,-5 635,0 1269,-1 1903,0 424,0 704,282 704,707 0,354 0,708 0,1063 0,40 0,80 0,126 -167,0 -322,0 -493,0 0,-42 0,-82 0,-121 0,-336 0,-672 0,-1008 -1,-233 -109,-341 -341,-342 -89,0 -178,0 -283,0 0,493 0,979 0,1472 -178,0 -340,0 -515,0 0,-487 0,-971 0,-1465z"/>
   <path class="fil0" d="M10791 11511c-135,16 -271,22 -403,49 -395,80 -793,151 -1181,258 -725,199 -1414,500 -2094,818 -772,360 -1521,766 -2255,1198 -390,229 -777,463 -1160,703 -343,215 -679,440 -1014,666 -77,52 -119,53 -165,-32 -35,-65 -84,-122 -129,-181 -53,-67 -44,-111 32,-159 537,-339 1066,-690 1608,-1019 423,-256 850,-508 1294,-723 652,-317 1311,-620 1983,-888 495,-197 1012,-342 1525,-487 402,-114 816,-184 1236,-201 240,-9 481,-21 721,-31 1,10 1,19 2,29z"/>
   <path class="fil0" d="M10117 12704c-578,-30 -1136,77 -1687,236 -709,204 -1385,488 -2051,801 -819,385 -1611,817 -2383,1287 -348,212 -695,426 -1058,649 -78,-88 -164,-183 -258,-289 192,-122 378,-241 565,-358 406,-254 810,-511 1219,-759 296,-178 592,-357 900,-511 458,-229 920,-454 1393,-650 507,-210 1035,-369 1580,-448 303,-44 613,-73 919,-67 289,6 577,66 866,103l-5 6z"/>
   <path class="fil2" d="M8193 20741c-152,0 -304,0 -463,0 0,-131 0,-249 0,-379 156,0 311,0 482,0 0,-244 0,-476 0,-715 149,0 281,0 425,0 0,233 0,463 0,711 100,0 187,-1 275,0 168,2 338,-14 502,12 385,59 569,363 637,686 73,349 -3,670 -204,962 -110,160 -274,252 -460,261 -354,16 -708,4 -1063,5 -30,0 -59,0 -112,0 0,-512 0,-1017 0,-1523 -6,-6 -12,-13 -19,-20zm457 1183l0 0c187,0 362,6 536,-3 62,-3 129,-32 184,-67 168,-105 222,-281 251,-461 39,-250 -74,-607 -411,-646 -182,-21 -369,-4 -560,-4 0,395 0,781 0,1181z"/>
   <path class="fil2" d="M11858 21164c-52,-254 -204,-380 -446,-381 -305,0 -611,0 -925,0 0,-142 0,-277 0,-426 50,0 98,0 145,0 302,0 604,0 906,1 456,0 776,321 776,778 0,369 0,737 0,1119 -46,2 -86,6 -125,6 -440,0 -880,-10 -1320,3 -344,11 -582,-321 -518,-664 51,-274 302,-449 547,-439 317,13 634,3 960,3zm-66 291l0 0c-235,0 -459,-4 -682,2 -122,4 -223,116 -229,233 -5,99 78,228 171,231 244,8 489,3 740,3 0,-159 0,-306 0,-469z"/>
   <path class="fil2" d="M15725 21164c22,-146 -94,-315 -238,-354 -60,-16 -124,-25 -186,-25 -265,-3 -530,-2 -795,-2 -40,0 -80,0 -126,0 0,-145 0,-277 0,-425 65,0 127,0 189,-1 294,0 589,-6 883,2 267,7 498,107 636,343 65,111 111,248 116,375 15,376 6,753 5,1130 0,14 -5,28 -10,54 -41,0 -81,0 -121,0 -440,0 -880,-9 -1320,3 -309,9 -506,-270 -520,-514 -20,-330 246,-611 575,-589 267,17 536,3 805,3 36,0 73,0 107,0zm-37 291l0 0c-237,0 -460,-4 -683,2 -125,4 -220,108 -228,231 -6,91 74,228 155,231 251,8 502,3 756,3 0,-160 0,-307 0,-467z"/>
   <path class="fil0" d="M10993 13013c249,102 419,292 547,518 196,343 220,715 174,1101 -65,535 -251,1031 -485,1508 -366,749 -813,1448 -1332,2101 -13,18 -24,38 -36,56 -144,211 -230,242 -483,191 -85,-17 -172,-19 -286,-31 92,-106 167,-186 234,-272 292,-370 585,-738 869,-1114 332,-439 615,-911 857,-1405 186,-380 339,-776 407,-1197 50,-312 42,-622 -84,-919 -79,-187 -198,-346 -346,-485 -15,-14 -25,-33 -38,-49l2 -3z"/>
   <path class="fil0" d="M9016 13788c-164,10 -335,9 -501,35 -259,39 -520,80 -772,149 -604,165 -1178,408 -1743,676 -719,342 -1420,718 -2097,1137 -157,98 -317,194 -478,285 -28,16 -83,21 -103,4 -100,-82 -193,-174 -303,-277 196,-116 364,-222 538,-318 479,-262 956,-530 1444,-776 560,-283 1129,-550 1732,-734 411,-126 827,-228 1258,-265 385,-32 743,-14 1025,84z"/>
   <path class="fil3" d="M4667 22328c-535,12 -995,-375 -953,-1064 31,-503 391,-910 960,-903 592,8 939,359 965,931 29,621 -376,1054 -972,1036zm-508 -957l0 0c7,45 14,122 28,198 34,201 226,392 399,401 317,16 504,-93 560,-359 32,-151 43,-315 20,-467 -62,-409 -467,-527 -749,-356 -211,127 -248,331 -258,583z"/>
   <path class="fil2" d="M13455 19648c0,237 0,467 0,708 167,0 322,0 485,0 0,129 0,246 0,379 -156,0 -314,0 -484,0 0,280 -2,543 0,807 1,66 19,132 19,198 2,99 65,120 141,117 103,-5 205,-19 319,-29 17,120 36,242 49,365 1,13 -33,41 -52,43 -151,19 -301,42 -452,46 -275,7 -475,-166 -492,-438 -20,-319 -18,-640 -25,-959 -1,-44 0,-88 0,-144 -129,0 -246,0 -372,0 0,-129 0,-246 0,-379 117,0 238,0 370,0 0,-238 0,-460 0,-690 168,-8 325,-16 494,-24z"/>
   <path class="fil0" d="M9897 14248c217,178 398,380 446,673 75,455 -23,886 -177,1309 -195,536 -464,1038 -762,1523 -133,214 -280,419 -424,626 -17,26 -59,54 -87,51 -190,-21 -380,-50 -598,-80 110,-130 201,-237 293,-345 460,-544 868,-1122 1172,-1768 176,-375 299,-768 313,-1186 8,-237 -45,-464 -157,-676 -18,-34 -32,-71 -48,-107 9,-7 19,-13 29,-20z"/>
   <path class="fil1" d="M6029 19645c169,0 332,0 502,0 0,877 0,1751 0,2632 -165,0 -330,0 -502,0 0,-874 0,-1748 0,-2632z"/>
   <path class="fil1" d="M6966 22262c0,-628 0,-1255 -1,-1882 7,-7 13,-13 19,-19 172,0 344,0 516,0 9,6 19,12 28,19 2,189 6,378 7,567 1,405 0,810 0,1215 0,37 0,73 0,118 -190,0 -370,0 -551,0 -6,-6 -12,-12 -18,-18z"/>
   <path class="fil4" d="M7515 20176c-184,0 -362,0 -546,0 0,-175 0,-348 0,-528 178,0 358,0 546,0 0,171 0,344 0,528z"/>
   <path class="fil0" d="M10122 12698c29,2 57,4 86,6 -1,6 -1,12 -2,18 -30,-6 -59,-12 -89,-18 0,0 5,-6 5,-6z"/>
   <path class="fil0" d="M10948 12992c-19,-8 -38,-15 -58,-23 4,-6 8,-12 12,-19 15,14 31,28 46,41 0,0 0,1 0,1z"/>
   <path class="fil0" d="M10991 13016c-14,-8 -29,-16 -43,-24 0,0 0,-1 0,-1 15,8 30,15 45,22 0,0 -2,3 -2,3z"/>
   <path class="fil0" d="M9847 14223c-2,3 -2,6 -4,8 -2,1 -6,-1 -8,-2 2,-5 4,-10 6,-15 2,3 4,6 6,9z"/>
   <path class="fil5" d="M7528 20380c-9,-7 -19,-13 -28,-19 9,6 19,12 28,19z"/>
   <path class="fil5" d="M6984 20361c-6,6 -12,12 -19,19 7,-7 13,-13 19,-19z"/>
   <path class="fil6" d="M8193 20741c7,7 13,14 19,20 -6,-6 -12,-13 -19,-20z"/>
   <path class="fil5" d="M6966 22262c6,6 12,12 18,18 -6,-6 -12,-12 -18,-18z"/>
  </g>
 </g>
</svg>
