<?xml version="1.0" standalone="no"?>
<!DOCTYPE svg PUBLIC "-//W3C//DTD SVG 20010904//EN"
 "http://www.w3.org/TR/2001/REC-SVG-20010904/DTD/svg10.dtd">
<svg version="1.0" xmlns="http://www.w3.org/2000/svg"
 width="1280.000000pt" height="1280.000000pt" viewBox="0 0 1280.000000 1280.000000"
 preserveAspectRatio="xMidYMid meet">
<g transform="translate(0.000000,1280.000000) scale(0.100000,-0.100000)"
fill="#000000" stroke="none">
<path d="M4468 12788 c9 -9 15 -9 24 0 9 9 7 12 -12 12 -19 0 -21 -3 -12 -12z"/>
<path d="M5108 12788 c9 -9 15 -9 24 0 9 9 7 12 -12 12 -19 0 -21 -3 -12 -12z"/>
<path d="M5740 12790 c0 -5 9 -10 20 -10 11 0 20 5 20 10 0 6 -9 10 -20 10
-11 0 -20 -4 -20 -10z"/>
<path d="M6383 12783 c16 -16 18 -16 34 0 16 16 15 17 -17 17 -32 0 -33 -1
-17 -17z"/>
<path d="M7020 12790 c0 -5 9 -10 20 -10 11 0 20 5 20 10 0 6 -9 10 -20 10
-11 0 -20 -4 -20 -10z"/>
<path d="M7668 12788 c9 -9 15 -9 24 0 9 9 7 12 -12 12 -19 0 -21 -3 -12 -12z"/>
<path d="M8308 12788 c9 -9 15 -9 24 0 9 9 7 12 -12 12 -19 0 -21 -3 -12 -12z"/>
<path d="M5420 12494 c-11 -12 -10 -18 3 -32 16 -15 18 -15 34 0 13 14 14 20
3 32 -7 9 -16 16 -20 16 -4 0 -13 -7 -20 -16z"/>
<path d="M6054 12496 c-10 -26 4 -48 28 -44 17 2 23 10 23 28 0 18 -6 26 -23
28 -13 2 -25 -3 -28 -12z"/>
<path d="M6694 12496 c-10 -26 4 -48 28 -44 17 2 23 10 23 28 0 18 -6 26 -23
28 -13 2 -25 -3 -28 -12z"/>
<path d="M7340 12494 c-11 -12 -10 -18 3 -32 16 -15 18 -15 34 0 13 14 14 20
3 32 -7 9 -16 16 -20 16 -4 0 -13 -7 -20 -16z"/>
<path d="M3510 12485 c0 -8 5 -15 10 -15 6 0 10 7 10 15 0 8 -4 15 -10 15 -5
0 -10 -7 -10 -15z"/>
<path d="M4144 12489 c-10 -17 13 -36 27 -22 12 12 4 33 -11 33 -5 0 -12 -5
-16 -11z"/>
<path d="M4780 12480 c0 -13 7 -20 20 -20 13 0 20 7 20 20 0 13 -7 20 -20 20
-13 0 -20 -7 -20 -20z"/>
<path d="M7980 12480 c0 -13 7 -20 20 -20 13 0 20 7 20 20 0 13 -7 20 -20 20
-13 0 -20 -7 -20 -20z"/>
<path d="M8624 12489 c-10 -17 13 -36 27 -22 12 12 4 33 -11 33 -5 0 -12 -5
-16 -11z"/>
<path d="M9270 12485 c0 -8 5 -15 10 -15 6 0 10 7 10 15 0 8 -4 15 -10 15 -5
0 -10 -7 -10 -15z"/>
<path d="M2870 12480 c0 -5 5 -10 10 -10 6 0 10 5 10 10 0 6 -4 10 -10 10 -5
0 -10 -4 -10 -10z"/>
<path d="M9910 12480 c0 -5 5 -10 10 -10 6 0 10 5 10 10 0 6 -4 10 -10 10 -5
0 -10 -4 -10 -10z"/>
<path d="M5730 12185 l-24 -26 27 -27 27 -27 27 27 27 27 -24 26 c-13 14 -26
25 -30 25 -4 0 -17 -11 -30 -25z"/>
<path d="M6367 12192 c-22 -24 -21 -45 1 -65 24 -22 45 -21 65 1 22 24 21 45
-1 65 -24 22 -45 21 -65 -1z"/>
<path d="M7010 12185 l-24 -26 27 -27 27 -27 27 27 27 27 -24 26 c-13 14 -26
25 -30 25 -4 0 -17 -11 -30 -25z"/>
<path d="M4455 12180 c-18 -20 -18 -21 3 -43 l22 -21 22 21 c21 22 21 23 3 43
-10 11 -21 20 -25 20 -4 0 -15 -9 -25 -20z"/>
<path d="M5090 12185 c-26 -32 13 -81 48 -59 34 22 22 74 -18 74 -10 0 -23 -7
-30 -15z"/>
<path d="M7650 12185 c-26 -32 13 -81 48 -59 34 22 22 74 -18 74 -10 0 -23 -7
-30 -15z"/>
<path d="M8295 12180 c-18 -20 -18 -21 3 -43 l22 -21 22 21 c21 22 21 23 3 43
-10 11 -21 20 -25 20 -4 0 -15 -9 -25 -20z"/>
<path d="M3820 12174 c-11 -12 -10 -18 3 -32 16 -15 18 -15 34 0 13 14 14 20
3 32 -7 9 -16 16 -20 16 -4 0 -13 -7 -20 -16z"/>
<path d="M8940 12174 c-11 -12 -10 -18 3 -32 16 -15 18 -15 34 0 13 14 14 20
3 32 -7 9 -16 16 -20 16 -4 0 -13 -7 -20 -16z"/>
<path d="M2544 12169 c-10 -17 13 -36 27 -22 12 12 4 33 -11 33 -5 0 -12 -5
-16 -11z"/>
<path d="M3180 12160 c0 -13 7 -20 20 -20 13 0 20 7 20 20 0 13 -7 20 -20 20
-13 0 -20 -7 -20 -20z"/>
<path d="M9580 12160 c0 -13 7 -20 20 -20 13 0 20 7 20 20 0 13 -7 20 -20 20
-13 0 -20 -7 -20 -20z"/>
<path d="M10224 12169 c-10 -17 13 -36 27 -22 12 12 4 33 -11 33 -5 0 -12 -5
-16 -11z"/>
<path d="M1910 12160 c0 -5 5 -10 10 -10 6 0 10 5 10 10 0 6 -4 10 -10 10 -5
0 -10 -4 -10 -10z"/>
<path d="M10870 12160 c0 -5 5 -10 10 -10 6 0 10 5 10 10 0 6 -4 10 -10 10 -5
0 -10 -4 -10 -10z"/>
<path d="M6045 11870 l-29 -30 32 -33 32 -32 32 32 32 33 -29 30 c-16 16 -32
30 -35 30 -3 0 -19 -14 -35 -30z"/>
<path d="M6685 11870 l-29 -30 32 -33 32 -32 32 32 32 33 -29 30 c-16 16 -32
30 -35 30 -3 0 -19 -14 -35 -30z"/>
<path d="M4772 11867 c-20 -21 -21 -25 -6 -45 17 -24 43 -29 62 -10 17 17 15
42 -6 61 -24 22 -24 21 -50 -6z"/>
<path d="M5407 11872 c-22 -24 -21 -45 1 -65 24 -22 45 -21 65 1 22 24 21 45
-1 65 -24 22 -45 21 -65 -1z"/>
<path d="M7327 11872 c-22 -24 -21 -45 1 -65 24 -22 45 -21 65 1 22 24 21 45
-1 65 -24 22 -45 21 -65 -1z"/>
<path d="M7972 11867 c-20 -21 -21 -25 -6 -45 17 -24 43 -29 62 -10 17 17 15
42 -6 61 -24 22 -24 21 -50 -6z"/>
<path d="M4135 11860 c-18 -20 -18 -21 3 -43 l22 -21 22 21 c21 22 21 23 3 43
-10 11 -21 20 -25 20 -4 0 -15 -9 -25 -20z"/>
<path d="M8615 11860 c-18 -20 -18 -21 3 -43 l22 -21 22 21 c21 22 21 23 3 43
-10 11 -21 20 -25 20 -4 0 -15 -9 -25 -20z"/>
<path d="M3500 11854 c-11 -12 -10 -18 3 -32 16 -15 18 -15 34 0 13 14 14 20
3 32 -7 9 -16 16 -20 16 -4 0 -13 -7 -20 -16z"/>
<path d="M9260 11854 c-11 -12 -10 -18 3 -32 16 -15 18 -15 34 0 13 14 14 20
3 32 -7 9 -16 16 -20 16 -4 0 -13 -7 -20 -16z"/>
<path d="M2224 11849 c-10 -17 13 -36 27 -22 12 12 4 33 -11 33 -5 0 -12 -5
-16 -11z"/>
<path d="M2860 11840 c0 -13 7 -20 20 -20 13 0 20 7 20 20 0 13 -7 20 -20 20
-13 0 -20 -7 -20 -20z"/>
<path d="M9900 11840 c0 -13 7 -20 20 -20 13 0 20 7 20 20 0 13 -7 20 -20 20
-13 0 -20 -7 -20 -20z"/>
<path d="M10544 11849 c-10 -17 13 -36 27 -22 12 12 4 33 -11 33 -5 0 -12 -5
-16 -11z"/>
<path d="M1590 11840 c0 -5 5 -10 10 -10 6 0 10 5 10 10 0 6 -4 10 -10 10 -5
0 -10 -4 -10 -10z"/>
<path d="M11190 11840 c0 -5 5 -10 10 -10 6 0 10 5 10 10 0 6 -4 10 -10 10 -5
0 -10 -4 -10 -10z"/>
<path d="M5715 11560 l-39 -40 42 -43 42 -42 42 42 42 43 -39 40 c-21 22 -42
40 -45 40 -3 0 -24 -18 -45 -40z"/>
<path d="M6352 11567 c-18 -18 -32 -40 -32 -48 0 -19 61 -79 81 -79 19 0 79
61 79 81 0 19 -61 79 -81 79 -8 0 -29 -15 -47 -33z"/>
<path d="M6995 11560 l-39 -40 42 -43 42 -42 42 42 42 43 -39 40 c-21 22 -42
40 -45 40 -3 0 -24 -18 -45 -40z"/>
<path d="M5080 11555 l-34 -35 37 -38 37 -37 37 37 37 38 -34 35 c-19 19 -37
35 -40 35 -3 0 -21 -16 -40 -35z"/>
<path d="M7640 11555 l-34 -35 37 -38 37 -37 37 37 37 38 -34 35 c-19 19 -37
35 -40 35 -3 0 -21 -16 -40 -35z"/>
<path d="M4445 11550 l-29 -30 32 -33 32 -32 32 32 32 33 -29 30 c-16 16 -32
30 -35 30 -3 0 -19 -14 -35 -30z"/>
<path d="M8285 11550 l-29 -30 32 -33 32 -32 32 32 32 33 -29 30 c-16 16 -32
30 -35 30 -3 0 -19 -14 -35 -30z"/>
<path d="M3810 11545 l-24 -26 27 -27 27 -27 27 27 27 27 -24 26 c-13 14 -26
25 -30 25 -4 0 -17 -11 -30 -25z"/>
<path d="M8930 11545 l-24 -26 27 -27 27 -27 27 27 27 27 -24 26 c-13 14 -26
25 -30 25 -4 0 -17 -11 -30 -25z"/>
<path d="M3175 11540 c-18 -20 -18 -21 3 -43 l22 -21 22 21 c21 22 21 23 3 43
-10 11 -21 20 -25 20 -4 0 -15 -9 -25 -20z"/>
<path d="M9575 11540 c-18 -20 -18 -21 3 -43 l22 -21 22 21 c21 22 21 23 3 43
-10 11 -21 20 -25 20 -4 0 -15 -9 -25 -20z"/>
<path d="M2540 11534 c-11 -12 -10 -18 3 -32 16 -15 18 -15 34 0 13 14 14 20
3 32 -7 9 -16 16 -20 16 -4 0 -13 -7 -20 -16z"/>
<path d="M10220 11534 c-11 -12 -10 -18 3 -32 16 -15 18 -15 34 0 13 14 14 20
3 32 -7 9 -16 16 -20 16 -4 0 -13 -7 -20 -16z"/>
<path d="M1902 11523 c2 -10 10 -18 18 -18 8 0 16 8 18 18 2 12 -3 17 -18 17
-15 0 -20 -5 -18 -17z"/>
<path d="M10862 11523 c2 -10 10 -18 18 -18 8 0 16 8 18 18 2 12 -3 17 -18 17
-15 0 -20 -5 -18 -17z"/>
<path d="M1270 11520 c0 -5 5 -10 10 -10 6 0 10 5 10 10 0 6 -4 10 -10 10 -5
0 -10 -4 -10 -10z"/>
<path d="M11510 11520 c0 -5 5 -10 10 -10 6 0 10 5 10 10 0 6 -4 10 -10 10 -5
0 -10 -4 -10 -10z"/>
<path d="M6032 11247 c-18 -18 -32 -40 -32 -48 0 -19 61 -79 81 -79 19 0 79
61 79 81 0 19 -61 79 -81 79 -8 0 -29 -15 -47 -33z"/>
<path d="M6672 11247 c-18 -18 -32 -40 -32 -48 0 -19 61 -79 81 -79 19 0 79
61 79 81 0 19 -61 79 -81 79 -8 0 -29 -15 -47 -33z"/>
<path d="M4760 11235 l-34 -35 37 -38 37 -37 37 37 37 38 -34 35 c-19 19 -37
35 -40 35 -3 0 -21 -16 -40 -35z"/>
<path d="M5397 11242 c-15 -15 -27 -35 -27 -43 0 -19 51 -69 70 -69 19 0 70
50 70 69 0 20 -50 71 -70 71 -9 0 -28 -13 -43 -28z"/>
<path d="M7317 11242 c-15 -15 -27 -35 -27 -43 0 -19 51 -69 70 -69 19 0 70
50 70 69 0 20 -50 71 -70 71 -9 0 -28 -13 -43 -28z"/>
<path d="M7960 11235 l-34 -35 37 -38 37 -37 37 37 37 38 -34 35 c-19 19 -37
35 -40 35 -3 0 -21 -16 -40 -35z"/>
<path d="M4125 11230 l-29 -30 32 -33 32 -32 32 32 32 33 -29 30 c-16 16 -32
30 -35 30 -3 0 -19 -14 -35 -30z"/>
<path d="M8605 11230 l-29 -30 32 -33 32 -32 32 32 32 33 -29 30 c-16 16 -32
30 -35 30 -3 0 -19 -14 -35 -30z"/>
<path d="M3490 11225 l-24 -26 27 -27 27 -27 27 27 27 27 -24 26 c-13 14 -26
25 -30 25 -4 0 -17 -11 -30 -25z"/>
<path d="M9250 11225 l-24 -26 27 -27 27 -27 27 27 27 27 -24 26 c-13 14 -26
25 -30 25 -4 0 -17 -11 -30 -25z"/>
<path d="M2855 11220 c-18 -20 -18 -21 3 -43 l22 -21 22 21 c21 22 21 23 3 43
-10 11 -21 20 -25 20 -4 0 -15 -9 -25 -20z"/>
<path d="M9895 11220 c-18 -20 -18 -21 3 -43 l22 -21 22 21 c21 22 21 23 3 43
-10 11 -21 20 -25 20 -4 0 -15 -9 -25 -20z"/>
<path d="M2220 11214 c-11 -12 -10 -18 3 -32 16 -15 18 -15 34 0 13 14 14 20
3 32 -7 9 -16 16 -20 16 -4 0 -13 -7 -20 -16z"/>
<path d="M10540 11214 c-11 -12 -10 -18 3 -32 16 -15 18 -15 34 0 13 14 14 20
3 32 -7 9 -16 16 -20 16 -4 0 -13 -7 -20 -16z"/>
<path d="M1584 11209 c-10 -17 13 -36 27 -22 12 12 4 33 -11 33 -5 0 -12 -5
-16 -11z"/>
<path d="M11184 11209 c-10 -17 13 -36 27 -22 12 12 4 33 -11 33 -5 0 -12 -5
-16 -11z"/>
<path d="M950 11200 c0 -5 5 -10 10 -10 6 0 10 5 10 10 0 6 -4 10 -10 10 -5 0
-10 -4 -10 -10z"/>
<path d="M11830 11200 c0 -5 5 -10 10 -10 6 0 10 5 10 10 0 6 -4 10 -10 10 -5
0 -10 -4 -10 -10z"/>
<path d="M6340 10940 c-28 -27 -50 -53 -50 -57 0 -5 25 -33 55 -63 l55 -54 55
54 c30 30 55 58 55 63 0 12 -97 107 -110 107 -6 0 -33 -22 -60 -50z"/>
<path d="M5702 10937 c-23 -23 -42 -49 -42 -57 0 -19 80 -100 99 -100 20 0
101 80 101 99 0 20 -80 101 -100 101 -9 0 -35 -19 -58 -43z"/>
<path d="M6982 10937 c-23 -23 -42 -49 -42 -57 0 -19 80 -100 99 -100 20 0
101 80 101 99 0 20 -80 101 -100 101 -9 0 -35 -19 -58 -43z"/>
<path d="M5067 10932 c-20 -21 -37 -45 -37 -53 0 -19 71 -89 91 -89 19 0 89
71 89 91 0 19 -71 89 -91 89 -8 0 -32 -17 -52 -38z"/>
<path d="M7627 10932 c-20 -21 -37 -45 -37 -53 0 -19 71 -89 91 -89 19 0 89
71 89 91 0 19 -71 89 -91 89 -8 0 -32 -17 -52 -38z"/>
<path d="M4434 10926 c-19 -19 -34 -38 -34 -43 0 -5 18 -27 40 -48 l40 -39 40
39 c22 21 40 43 40 48 0 13 -66 77 -80 77 -7 0 -27 -15 -46 -34z"/>
<path d="M8274 10926 c-19 -19 -34 -38 -34 -43 0 -5 18 -27 40 -48 l40 -39 40
39 c22 21 40 43 40 48 0 13 -66 77 -80 77 -7 0 -27 -15 -46 -34z"/>
<path d="M3800 10915 l-34 -35 37 -38 37 -37 37 37 37 38 -34 35 c-19 19 -37
35 -40 35 -3 0 -21 -16 -40 -35z"/>
<path d="M8920 10915 l-34 -35 37 -38 37 -37 37 37 37 38 -34 35 c-19 19 -37
35 -40 35 -3 0 -21 -16 -40 -35z"/>
<path d="M3165 10910 l-29 -30 32 -33 32 -32 32 32 32 33 -29 30 c-16 16 -32
30 -35 30 -3 0 -19 -14 -35 -30z"/>
<path d="M9565 10910 l-29 -30 32 -33 32 -32 32 32 32 33 -29 30 c-16 16 -32
30 -35 30 -3 0 -19 -14 -35 -30z"/>
<path d="M2530 10905 l-24 -26 27 -27 27 -27 27 27 27 27 -24 26 c-13 14 -26
25 -30 25 -4 0 -17 -11 -30 -25z"/>
<path d="M10210 10905 l-24 -26 27 -27 27 -27 27 27 27 27 -24 26 c-13 14 -26
25 -30 25 -4 0 -17 -11 -30 -25z"/>
<path d="M1894 10896 c-10 -26 4 -48 28 -44 17 2 23 10 23 28 0 18 -6 26 -23
28 -13 2 -25 -3 -28 -12z"/>
<path d="M10854 10896 c-10 -26 4 -48 28 -44 17 2 23 10 23 28 0 18 -6 26 -23
28 -13 2 -25 -3 -28 -12z"/>
<path d="M1262 10883 c2 -10 10 -18 18 -18 8 0 16 8 18 18 2 12 -3 17 -18 17
-15 0 -20 -5 -18 -17z"/>
<path d="M11502 10883 c2 -10 10 -18 18 -18 8 0 16 8 18 18 2 12 -3 17 -18 17
-15 0 -20 -5 -18 -17z"/>
<path d="M630 10880 c0 -5 5 -10 10 -10 6 0 10 5 10 10 0 6 -4 10 -10 10 -5 0
-10 -4 -10 -10z"/>
<path d="M12150 10880 c0 -5 5 -10 10 -10 6 0 10 5 10 10 0 6 -4 10 -10 10 -5
0 -10 -4 -10 -10z"/>
<path d="M6020 10615 l-55 -55 58 -58 57 -57 57 57 58 58 -55 55 c-30 30 -57
55 -60 55 -3 0 -30 -25 -60 -55z"/>
<path d="M6660 10615 l-55 -55 58 -58 57 -57 57 57 58 58 -55 55 c-30 30 -57
55 -60 55 -3 0 -30 -25 -60 -55z"/>
<path d="M5385 10610 l-50 -50 53 -53 52 -52 52 52 53 53 -50 50 c-27 27 -52
50 -55 50 -3 0 -28 -23 -55 -50z"/>
<path d="M7305 10610 l-50 -50 53 -53 52 -52 52 52 53 53 -50 50 c-27 27 -52
50 -55 50 -3 0 -28 -23 -55 -50z"/>
<path d="M4750 10605 l-44 -45 39 -40 c21 -22 46 -40 55 -40 9 0 34 18 55 40
l39 40 -44 45 c-24 25 -47 45 -50 45 -3 0 -26 -20 -50 -45z"/>
<path d="M7950 10605 l-44 -45 39 -40 c21 -22 46 -40 55 -40 9 0 34 18 55 40
l39 40 -44 45 c-24 25 -47 45 -50 45 -3 0 -26 -20 -50 -45z"/>
<path d="M4117 10602 c-15 -15 -27 -35 -27 -43 0 -19 51 -69 70 -69 19 0 70
50 70 69 0 20 -50 71 -70 71 -9 0 -28 -13 -43 -28z"/>
<path d="M8597 10602 c-15 -15 -27 -35 -27 -43 0 -19 51 -69 70 -69 19 0 70
50 70 69 0 20 -50 71 -70 71 -9 0 -28 -13 -43 -28z"/>
<path d="M3482 10597 c-28 -30 -28 -48 1 -75 30 -28 48 -28 75 1 28 30 28 48
-1 75 -30 28 -48 28 -75 -1z"/>
<path d="M9242 10597 c-28 -30 -28 -48 1 -75 30 -28 48 -28 75 1 28 30 28 48
-1 75 -30 28 -48 28 -75 -1z"/>
<path d="M2850 10590 c-26 -26 -25 -32 5 -60 l25 -23 25 23 c14 13 25 27 25
32 0 11 -38 48 -50 48 -5 0 -19 -9 -30 -20z"/>
<path d="M9890 10590 c-26 -26 -25 -32 5 -60 l25 -23 25 23 c14 13 25 27 25
32 0 11 -38 48 -50 48 -5 0 -19 -9 -30 -20z"/>
<path d="M2215 10580 c-18 -20 -18 -21 3 -43 l22 -21 22 21 c21 22 21 23 3 43
-10 11 -21 20 -25 20 -4 0 -15 -9 -25 -20z"/>
<path d="M10535 10580 c-18 -20 -18 -21 3 -43 l22 -21 22 21 c21 22 21 23 3
43 -10 11 -21 20 -25 20 -4 0 -15 -9 -25 -20z"/>
<path d="M1580 10574 c-11 -12 -10 -18 3 -32 16 -15 18 -15 34 0 13 14 14 20
3 32 -7 9 -16 16 -20 16 -4 0 -13 -7 -20 -16z"/>
<path d="M11180 10574 c-11 -12 -10 -18 3 -32 16 -15 18 -15 34 0 13 14 14 20
3 32 -7 9 -16 16 -20 16 -4 0 -13 -7 -20 -16z"/>
<path d="M944 10569 c-10 -17 13 -36 27 -22 12 12 4 33 -11 33 -5 0 -12 -5
-16 -11z"/>
<path d="M11824 10569 c-10 -17 13 -36 27 -22 12 12 4 33 -11 33 -5 0 -12 -5
-16 -11z"/>
<path d="M5688 10312 c-32 -33 -58 -65 -58 -72 0 -7 26 -39 58 -72 33 -32 65
-58 72 -58 17 0 130 113 130 130 0 17 -113 130 -130 130 -7 0 -39 -26 -72 -58z"/>
<path d="M6327 10312 c-31 -32 -57 -64 -57 -73 0 -19 111 -129 131 -129 19 0
129 111 129 131 0 19 -111 129 -131 129 -8 0 -40 -26 -72 -58z"/>
<path d="M6968 10312 c-32 -33 -58 -65 -58 -72 0 -7 26 -39 58 -72 33 -32 65
-58 72 -58 17 0 130 113 130 130 0 17 -113 130 -130 130 -7 0 -39 -26 -72 -58z"/>
<path d="M5057 10302 c-26 -26 -47 -54 -47 -63 0 -19 91 -109 111 -109 19 0
109 91 109 111 0 19 -91 109 -111 109 -8 0 -36 -22 -62 -48z"/>
<path d="M7617 10302 c-26 -26 -47 -54 -47 -63 0 -19 91 -109 111 -109 19 0
109 91 109 111 0 19 -91 109 -111 109 -8 0 -36 -22 -62 -48z"/>
<path d="M4422 10297 c-23 -23 -42 -49 -42 -57 0 -19 80 -100 99 -100 20 0
101 80 101 99 0 20 -80 101 -100 101 -9 0 -35 -19 -58 -43z"/>
<path d="M8262 10297 c-23 -23 -42 -49 -42 -57 0 -19 80 -100 99 -100 20 0
101 80 101 99 0 20 -80 101 -100 101 -9 0 -35 -19 -58 -43z"/>
<path d="M3790 10285 l-44 -45 47 -48 47 -47 47 47 47 48 -44 45 c-24 25 -47
45 -50 45 -3 0 -26 -20 -50 -45z"/>
<path d="M8910 10285 l-44 -45 47 -48 47 -47 47 47 47 48 -44 45 c-24 25 -47
45 -50 45 -3 0 -26 -20 -50 -45z"/>
<path d="M3157 10282 c-15 -15 -27 -35 -27 -43 0 -19 51 -69 70 -69 19 0 70
50 70 69 0 20 -50 71 -70 71 -9 0 -28 -13 -43 -28z"/>
<path d="M9557 10282 c-15 -15 -27 -35 -27 -43 0 -19 51 -69 70 -69 19 0 70
50 70 69 0 20 -50 71 -70 71 -9 0 -28 -13 -43 -28z"/>
<path d="M2525 10270 l-29 -30 32 -33 32 -32 32 32 32 33 -29 30 c-16 16 -32
30 -35 30 -3 0 -19 -14 -35 -30z"/>
<path d="M10205 10270 l-29 -30 32 -33 32 -32 32 32 32 33 -29 30 c-16 16 -32
30 -35 30 -3 0 -19 -14 -35 -30z"/>
<path d="M1890 10265 l-24 -26 27 -27 27 -27 27 27 27 27 -24 26 c-13 14 -26
25 -30 25 -4 0 -17 -11 -30 -25z"/>
<path d="M10850 10265 l-24 -26 27 -27 27 -27 27 27 27 27 -24 26 c-13 14 -26
25 -30 25 -4 0 -17 -11 -30 -25z"/>
<path d="M1260 10254 c-11 -12 -10 -18 3 -32 16 -15 18 -15 34 0 13 14 14 20
3 32 -7 9 -16 16 -20 16 -4 0 -13 -7 -20 -16z"/>
<path d="M11500 10254 c-11 -12 -10 -18 3 -32 16 -15 18 -15 34 0 13 14 14 20
3 32 -7 9 -16 16 -20 16 -4 0 -13 -7 -20 -16z"/>
<path d="M624 10249 c-10 -17 13 -36 27 -22 12 12 4 33 -11 33 -5 0 -12 -5
-16 -11z"/>
<path d="M12144 10249 c-10 -17 13 -36 27 -22 12 12 4 33 -11 33 -5 0 -12 -5
-16 -11z"/>
<path d="M6007 9992 c-31 -32 -57 -64 -57 -73 0 -19 111 -129 131 -129 19 0
129 111 129 131 0 19 -111 129 -131 129 -8 0 -40 -26 -72 -58z"/>
<path d="M6647 9992 c-31 -32 -57 -64 -57 -73 0 -19 111 -129 131 -129 19 0
129 111 129 131 0 19 -111 129 -131 129 -8 0 -40 -26 -72 -58z"/>
<path d="M5373 9987 c-29 -30 -53 -60 -53 -67 0 -7 24 -37 53 -67 30 -29 60
-53 67 -53 7 0 37 24 67 53 29 30 53 60 53 67 0 7 -24 37 -53 67 -30 29 -60
53 -67 53 -7 0 -37 -24 -67 -53z"/>
<path d="M7293 9987 c-29 -30 -53 -60 -53 -67 0 -7 24 -37 53 -67 30 -29 60
-53 67 -53 7 0 37 24 67 53 29 30 53 60 53 67 0 7 -24 37 -53 67 -30 29 -60
53 -67 53 -7 0 -37 -24 -67 -53z"/>
<path d="M4742 9977 c-23 -23 -42 -49 -42 -57 0 -19 80 -100 99 -100 20 0 101
80 101 99 0 20 -80 101 -100 101 -9 0 -35 -19 -58 -43z"/>
<path d="M7942 9977 c-23 -23 -42 -49 -42 -57 0 -19 80 -100 99 -100 20 0 101
80 101 99 0 20 -80 101 -100 101 -9 0 -35 -19 -58 -43z"/>
<path d="M4107 9972 c-20 -21 -37 -45 -37 -53 0 -19 71 -89 91 -89 19 0 89 71
89 91 0 19 -71 89 -91 89 -8 0 -32 -17 -52 -38z"/>
<path d="M8587 9972 c-20 -21 -37 -45 -37 -53 0 -19 71 -89 91 -89 19 0 89 71
89 91 0 19 -71 89 -91 89 -8 0 -32 -17 -52 -38z"/>
<path d="M3475 9960 l-39 -40 42 -43 42 -42 42 42 42 43 -39 40 c-21 22 -42
40 -45 40 -3 0 -24 -18 -45 -40z"/>
<path d="M9235 9960 l-39 -40 42 -43 42 -42 42 42 42 43 -39 40 c-21 22 -42
40 -45 40 -3 0 -24 -18 -45 -40z"/>
<path d="M2842 9957 c-28 -30 -28 -48 1 -75 30 -28 48 -28 75 1 28 30 28 48
-1 75 -30 28 -48 28 -75 -1z"/>
<path d="M9882 9957 c-28 -30 -28 -48 1 -75 30 -28 48 -28 75 1 28 30 28 48
-1 75 -30 28 -48 28 -75 -1z"/>
<path d="M2210 9950 c-26 -26 -25 -32 5 -60 l25 -23 25 23 c14 13 25 27 25 32
0 11 -38 48 -50 48 -5 0 -19 -9 -30 -20z"/>
<path d="M10530 9950 c-26 -26 -25 -32 5 -60 l25 -23 25 23 c14 13 25 27 25
32 0 11 -38 48 -50 48 -5 0 -19 -9 -30 -20z"/>
<path d="M1575 9940 c-18 -20 -18 -21 3 -43 l22 -21 22 21 c21 22 21 23 3 43
-10 11 -21 20 -25 20 -4 0 -15 -9 -25 -20z"/>
<path d="M11175 9940 c-18 -20 -18 -21 3 -43 l22 -21 22 21 c21 22 21 23 3 43
-10 11 -21 20 -25 20 -4 0 -15 -9 -25 -20z"/>
<path d="M940 9920 c0 -13 7 -20 20 -20 13 0 20 7 20 20 0 13 -7 20 -20 20
-13 0 -20 -7 -20 -20z"/>
<path d="M11820 9920 c0 -13 7 -20 20 -20 13 0 20 7 20 20 0 13 -7 20 -20 20
-13 0 -20 -7 -20 -20z"/>
<path d="M310 9920 c0 -5 5 -10 10 -10 6 0 10 5 10 10 0 6 -4 10 -10 10 -5 0
-10 -4 -10 -10z"/>
<path d="M12470 9920 c0 -5 5 -10 10 -10 6 0 10 5 10 10 0 6 -4 10 -10 10 -5
0 -10 -4 -10 -10z"/>
<path d="M6312 9687 c-39 -40 -72 -79 -72 -87 0 -20 141 -160 160 -160 20 0
160 140 160 160 0 20 -141 160 -160 160 -9 0 -48 -33 -88 -73z"/>
<path d="M5677 9682 c-37 -37 -67 -74 -67 -83 0 -19 131 -149 151 -149 19 0
149 131 149 151 0 19 -131 149 -151 149 -8 0 -45 -30 -82 -68z"/>
<path d="M6957 9682 c-37 -37 -67 -74 -67 -83 0 -19 131 -149 151 -149 19 0
149 131 149 151 0 19 -131 149 -151 149 -8 0 -45 -30 -82 -68z"/>
<path d="M5043 9677 c-34 -35 -63 -70 -63 -77 0 -17 123 -140 140 -140 7 0 42
29 77 63 35 35 63 70 63 77 0 7 -28 42 -63 77 -35 35 -70 63 -77 63 -7 0 -42
-28 -77 -63z"/>
<path d="M7603 9677 c-34 -35 -63 -70 -63 -77 0 -7 29 -42 63 -77 35 -34 70
-63 77 -63 7 0 42 29 77 63 35 35 63 70 63 77 0 7 -28 42 -63 77 -35 35 -70
63 -77 63 -7 0 -42 -28 -77 -63z"/>
<path d="M4412 9667 c-29 -29 -52 -59 -52 -68 0 -19 101 -119 121 -119 19 0
119 101 119 121 0 19 -101 119 -121 119 -8 0 -38 -24 -67 -53z"/>
<path d="M8252 9667 c-29 -29 -52 -59 -52 -68 0 -19 101 -119 121 -119 19 0
119 101 119 121 0 19 -101 119 -121 119 -8 0 -38 -24 -67 -53z"/>
<path d="M3780 9655 l-55 -55 58 -58 57 -57 57 57 58 58 -55 55 c-30 30 -57
55 -60 55 -3 0 -30 -25 -60 -55z"/>
<path d="M8900 9655 l-55 -55 58 -58 57 -57 57 57 58 58 -55 55 c-30 30 -57
55 -60 55 -3 0 -30 -25 -60 -55z"/>
<path d="M3149 9651 c-22 -21 -39 -43 -39 -47 0 -11 79 -94 89 -94 4 0 26 20
50 44 37 37 41 47 32 64 -13 24 -68 72 -83 72 -6 0 -28 -17 -49 -39z"/>
<path d="M9549 9651 c-22 -21 -39 -43 -39 -47 0 -11 79 -94 89 -94 4 0 26 20
50 44 37 37 41 47 32 64 -13 24 -68 72 -83 72 -6 0 -28 -17 -49 -39z"/>
<path d="M2517 9642 c-15 -15 -27 -35 -27 -43 0 -19 51 -69 70 -69 19 0 70 50
70 69 0 20 -50 71 -70 71 -9 0 -28 -13 -43 -28z"/>
<path d="M10197 9642 c-15 -15 -27 -35 -27 -43 0 -19 51 -69 70 -69 19 0 70
50 70 69 0 20 -50 71 -70 71 -9 0 -28 -13 -43 -28z"/>
<path d="M1885 9630 l-29 -30 32 -33 32 -32 32 32 32 33 -29 30 c-16 16 -32
30 -35 30 -3 0 -19 -14 -35 -30z"/>
<path d="M10845 9630 l-29 -30 32 -33 32 -32 32 32 32 33 -29 30 c-16 16 -32
30 -35 30 -3 0 -19 -14 -35 -30z"/>
<path d="M1255 9620 c-18 -20 -18 -21 3 -43 l22 -21 22 21 c21 22 21 23 3 43
-10 11 -21 20 -25 20 -4 0 -15 -9 -25 -20z"/>
<path d="M11495 9620 c-18 -20 -18 -21 3 -43 l22 -21 22 21 c21 22 21 23 3 43
-10 11 -21 20 -25 20 -4 0 -15 -9 -25 -20z"/>
<path d="M620 9600 c0 -13 7 -20 20 -20 13 0 20 7 20 20 0 13 -7 20 -20 20
-13 0 -20 -7 -20 -20z"/>
<path d="M12140 9600 c0 -13 7 -20 20 -20 13 0 20 7 20 20 0 13 -7 20 -20 20
-13 0 -20 -7 -20 -20z"/>
<path d="M5992 9367 c-41 -42 -62 -71 -62 -86 0 -33 118 -151 150 -151 33 0
150 118 150 151 0 34 -116 149 -151 149 -17 0 -43 -19 -87 -63z"/>
<path d="M6632 9367 c-41 -42 -62 -71 -62 -86 0 -33 118 -151 150 -151 33 0
150 118 150 151 0 34 -116 149 -151 149 -17 0 -43 -19 -87 -63z"/>
<path d="M5362 9357 c-34 -34 -62 -69 -62 -78 0 -19 121 -139 141 -139 19 0
139 121 139 141 0 19 -121 139 -141 139 -8 0 -43 -28 -77 -63z"/>
<path d="M7282 9357 c-34 -34 -62 -69 -62 -78 0 -19 121 -139 141 -139 19 0
139 121 139 141 0 19 -121 139 -141 139 -8 0 -43 -28 -77 -63z"/>
<path d="M4732 9347 c-29 -29 -52 -59 -52 -68 0 -19 101 -119 121 -119 19 0
119 101 119 121 0 19 -101 119 -121 119 -8 0 -38 -24 -67 -53z"/>
<path d="M7932 9347 c-29 -29 -52 -59 -52 -68 0 -19 101 -119 121 -119 19 0
119 101 119 121 0 19 -101 119 -121 119 -8 0 -38 -24 -67 -53z"/>
<path d="M4099 9341 c-27 -26 -49 -54 -49 -61 0 -17 93 -110 110 -110 17 0
110 93 110 110 0 17 -93 110 -110 110 -7 0 -35 -22 -61 -49z"/>
<path d="M8579 9341 c-27 -26 -49 -54 -49 -61 0 -7 22 -35 49 -61 26 -27 54
-49 61 -49 7 0 35 22 61 49 27 26 49 54 49 61 0 7 -22 35 -49 61 -26 27 -54
49 -61 49 -7 0 -35 -22 -61 -49z"/>
<path d="M3467 9332 c-20 -21 -37 -45 -37 -53 0 -19 71 -89 91 -89 19 0 89 71
89 91 0 19 -71 89 -91 89 -8 0 -32 -17 -52 -38z"/>
<path d="M9227 9332 c-20 -21 -37 -45 -37 -53 0 -19 71 -89 91 -89 19 0 89 71
89 91 0 19 -71 89 -91 89 -8 0 -32 -17 -52 -38z"/>
<path d="M2835 9320 l-39 -40 42 -43 42 -42 42 42 42 43 -39 40 c-21 22 -42
40 -45 40 -3 0 -24 -18 -45 -40z"/>
<path d="M9875 9320 l-39 -40 42 -43 42 -42 42 42 42 43 -39 40 c-21 22 -42
40 -45 40 -3 0 -24 -18 -45 -40z"/>
<path d="M2202 9317 c-28 -30 -28 -48 1 -75 30 -28 48 -28 75 1 28 30 28 48
-1 75 -30 28 -48 28 -75 -1z"/>
<path d="M10522 9317 c-28 -30 -28 -48 1 -75 30 -28 48 -28 75 1 28 30 28 48
-1 75 -30 28 -48 28 -75 -1z"/>
<path d="M1570 9305 l-24 -26 27 -27 27 -27 27 27 27 27 -24 26 c-13 14 -26
25 -30 25 -4 0 -17 -11 -30 -25z"/>
<path d="M11170 9305 l-24 -26 27 -27 27 -27 27 27 27 27 -24 26 c-13 14 -26
25 -30 25 -4 0 -17 -11 -30 -25z"/>
<path d="M940 9294 c-11 -12 -10 -18 3 -32 16 -15 18 -15 34 0 13 14 14 20 3
32 -7 9 -16 16 -20 16 -4 0 -13 -7 -20 -16z"/>
<path d="M11820 9294 c-11 -12 -10 -18 3 -32 16 -15 18 -15 34 0 13 14 14 20
3 32 -7 9 -16 16 -20 16 -4 0 -13 -7 -20 -16z"/>
<path d="M310 9285 c0 -8 5 -15 10 -15 6 0 10 7 10 15 0 8 -4 15 -10 15 -5 0
-10 -7 -10 -15z"/>
<path d="M12470 9285 c0 -8 5 -15 10 -15 6 0 10 7 10 15 0 8 -4 15 -10 15 -5
0 -10 -7 -10 -15z"/>
<path d="M6298 9062 c-48 -49 -88 -94 -88 -102 0 -8 40 -53 88 -102 49 -48 94
-88 102 -88 18 0 190 172 190 190 0 8 -40 53 -88 102 -49 48 -94 88 -102 88
-8 0 -53 -40 -102 -88z"/>
<path d="M5663 9057 c-46 -46 -83 -89 -83 -97 0 -8 37 -51 83 -97 46 -46 89
-83 97 -83 8 0 51 37 97 83 46 46 83 89 83 97 0 8 -37 51 -83 97 -46 46 -89
83 -97 83 -8 0 -51 -37 -97 -83z"/>
<path d="M6943 9057 c-46 -46 -83 -89 -83 -97 0 -8 37 -51 83 -97 46 -46 89
-83 97 -83 8 0 51 37 97 83 46 46 83 89 83 97 0 8 -37 51 -83 97 -46 46 -89
83 -97 83 -8 0 -51 -37 -97 -83z"/>
<path d="M5032 9047 c-39 -40 -72 -79 -72 -87 0 -20 141 -160 160 -160 20 0
160 140 160 160 0 20 -141 160 -160 160 -9 0 -48 -33 -88 -73z"/>
<path d="M7592 9047 c-39 -40 -72 -79 -72 -87 0 -20 141 -160 160 -160 20 0
160 140 160 160 0 20 -141 160 -160 160 -9 0 -48 -33 -88 -73z"/>
<path d="M4402 9037 c-34 -34 -62 -69 -62 -78 0 -19 121 -139 141 -139 19 0
139 121 139 141 0 19 -121 139 -141 139 -8 0 -43 -28 -77 -63z"/>
<path d="M8242 9037 c-34 -34 -62 -69 -62 -78 0 -19 121 -139 141 -139 19 0
139 121 139 141 0 19 -121 139 -141 139 -8 0 -43 -28 -77 -63z"/>
<path d="M3772 9027 c-29 -29 -52 -59 -52 -68 0 -19 101 -119 121 -119 19 0
119 101 119 121 0 19 -101 119 -121 119 -8 0 -38 -24 -67 -53z"/>
<path d="M8892 9027 c-29 -29 -52 -59 -52 -68 0 -19 101 -119 121 -119 19 0
119 101 119 121 0 19 -101 119 -121 119 -8 0 -38 -24 -67 -53z"/>
<path d="M3140 9015 l-55 -55 58 -58 57 -57 57 57 58 58 -55 55 c-30 30 -57
55 -60 55 -3 0 -30 -25 -60 -55z"/>
<path d="M9540 9015 l-55 -55 58 -58 57 -57 57 57 58 58 -55 55 c-30 30 -57
55 -60 55 -3 0 -30 -25 -60 -55z"/>
<path d="M2510 9005 l-44 -45 47 -48 47 -47 47 47 47 48 -44 45 c-24 25 -47
45 -50 45 -3 0 -26 -20 -50 -45z"/>
<path d="M10190 9005 l-44 -45 47 -48 47 -47 47 47 47 48 -44 45 c-24 25 -47
45 -50 45 -3 0 -26 -20 -50 -45z"/>
<path d="M1880 8995 l-34 -35 37 -38 37 -37 37 37 37 38 -34 35 c-19 19 -37
35 -40 35 -3 0 -21 -16 -40 -35z"/>
<path d="M10840 8995 l-34 -35 37 -38 37 -37 37 37 37 38 -34 35 c-19 19 -37
35 -40 35 -3 0 -21 -16 -40 -35z"/>
<path d="M1250 8985 l-24 -26 27 -27 27 -27 27 27 27 27 -24 26 c-13 14 -26
25 -30 25 -4 0 -17 -11 -30 -25z"/>
<path d="M11490 8985 l-24 -26 27 -27 27 -27 27 27 27 27 -24 26 c-13 14 -26
25 -30 25 -4 0 -17 -11 -30 -25z"/>
<path d="M620 8974 c-11 -12 -10 -18 3 -32 16 -15 18 -15 34 0 13 14 14 20 3
32 -7 9 -16 16 -20 16 -4 0 -13 -7 -20 -16z"/>
<path d="M12140 8974 c-11 -12 -10 -18 3 -32 16 -15 18 -15 34 0 13 14 14 20
3 32 -7 9 -16 16 -20 16 -4 0 -13 -7 -20 -16z"/>
<path d="M5982 8737 c-45 -45 -82 -89 -82 -97 0 -20 161 -180 180 -180 20 0
180 161 180 180 0 20 -161 180 -180 180 -9 0 -52 -37 -98 -83z"/>
<path d="M6622 8737 c-45 -45 -82 -89 -82 -97 0 -20 161 -180 180 -180 20 0
180 161 180 180 0 20 -161 180 -180 180 -9 0 -52 -37 -98 -83z"/>
<path d="M5352 8727 c-39 -40 -72 -79 -72 -87 0 -20 141 -160 160 -160 20 0
160 140 160 160 0 20 -141 160 -160 160 -9 0 -48 -33 -88 -73z"/>
<path d="M7272 8727 c-39 -40 -72 -79 -72 -87 0 -20 141 -160 160 -160 20 0
160 140 160 160 0 20 -141 160 -160 160 -9 0 -48 -33 -88 -73z"/>
<path d="M4722 8717 c-34 -34 -62 -69 -62 -78 0 -19 121 -139 141 -139 19 0
139 121 139 141 0 19 -121 139 -141 139 -8 0 -43 -28 -77 -63z"/>
<path d="M7922 8717 c-34 -34 -62 -69 -62 -78 0 -19 121 -139 141 -139 19 0
139 121 139 141 0 19 -121 139 -141 139 -8 0 -43 -28 -77 -63z"/>
<path d="M4088 8712 c-32 -33 -58 -65 -58 -72 0 -17 113 -130 130 -130 17 0
130 114 130 131 0 17 -114 129 -130 129 -7 0 -39 -26 -72 -58z"/>
<path d="M8568 8712 c-32 -33 -58 -65 -58 -72 0 -17 113 -130 130 -130 17 0
130 114 130 131 0 17 -114 129 -130 129 -7 0 -39 -26 -72 -58z"/>
<path d="M3459 8701 c-27 -26 -49 -54 -49 -61 0 -17 93 -110 110 -110 17 0
110 93 110 110 0 17 -93 110 -110 110 -7 0 -35 -22 -61 -49z"/>
<path d="M9219 8701 c-27 -26 -49 -54 -49 -61 0 -7 22 -35 49 -61 26 -27 54
-49 61 -49 7 0 35 22 61 49 27 26 49 54 49 61 0 7 -22 35 -49 61 -26 27 -54
49 -61 49 -7 0 -35 -22 -61 -49z"/>
<path d="M2827 8692 c-20 -21 -37 -45 -37 -53 0 -19 71 -89 91 -89 19 0 89 71
89 91 0 19 -71 89 -91 89 -8 0 -32 -17 -52 -38z"/>
<path d="M9867 8692 c-20 -21 -37 -45 -37 -53 0 -19 71 -89 91 -89 19 0 89 71
89 91 0 19 -71 89 -91 89 -8 0 -32 -17 -52 -38z"/>
<path d="M2197 8682 c-15 -15 -27 -35 -27 -43 0 -19 51 -69 70 -69 19 0 70 50
70 69 0 20 -50 71 -70 71 -9 0 -28 -13 -43 -28z"/>
<path d="M10517 8682 c-15 -15 -27 -35 -27 -43 0 -19 51 -69 70 -69 19 0 70
50 70 69 0 20 -50 71 -70 71 -9 0 -28 -13 -43 -28z"/>
<path d="M1565 8670 l-29 -30 32 -33 32 -32 32 32 32 33 -29 30 c-16 16 -32
30 -35 30 -3 0 -19 -14 -35 -30z"/>
<path d="M11165 8670 l-29 -30 32 -33 32 -32 32 32 32 33 -29 30 c-16 16 -32
30 -35 30 -3 0 -19 -14 -35 -30z"/>
<path d="M935 8660 c-18 -20 -18 -21 3 -43 l22 -21 22 21 c21 22 21 23 3 43
-10 11 -21 20 -25 20 -4 0 -15 -9 -25 -20z"/>
<path d="M11815 8660 c-18 -20 -18 -21 3 -43 l22 -21 22 21 c21 22 21 23 3 43
-10 11 -21 20 -25 20 -4 0 -15 -9 -25 -20z"/>
<path d="M304 8649 c-10 -17 13 -36 27 -22 12 12 4 33 -11 33 -5 0 -12 -5 -16
-11z"/>
<path d="M12464 8649 c-10 -17 13 -36 27 -22 12 12 4 33 -11 33 -5 0 -12 -5
-16 -11z"/>
<path d="M6282 8437 c-67 -67 -92 -99 -92 -117 0 -36 175 -210 210 -210 36 0
210 175 210 210 0 36 -175 210 -210 210 -19 0 -50 -25 -118 -93z"/>
<path d="M5647 8432 c-64 -64 -87 -94 -87 -113 0 -34 166 -199 201 -199 33 0
199 167 199 200 0 35 -165 200 -200 200 -19 0 -49 -23 -113 -88z"/>
<path d="M6927 8432 c-64 -64 -87 -94 -87 -113 0 -34 166 -199 201 -199 33 0
199 167 199 200 0 35 -165 200 -200 200 -19 0 -49 -23 -113 -88z"/>
<path d="M5018 8422 c-53 -54 -78 -86 -78 -102 0 -33 147 -180 180 -180 16 0
48 25 102 78 53 54 78 86 78 102 0 16 -25 48 -78 102 -54 53 -86 78 -102 78
-16 0 -48 -25 -102 -78z"/>
<path d="M7578 8422 c-53 -54 -78 -86 -78 -102 0 -16 25 -48 78 -102 54 -53
86 -78 102 -78 16 0 48 25 102 78 53 54 78 86 78 102 0 16 -25 48 -78 102 -54
53 -86 78 -102 78 -16 0 -48 -25 -102 -78z"/>
<path d="M4392 8407 c-39 -40 -72 -79 -72 -87 0 -20 141 -160 160 -160 20 0
160 140 160 160 0 20 -141 160 -160 160 -9 0 -48 -33 -88 -73z"/>
<path d="M8232 8407 c-39 -40 -72 -79 -72 -87 0 -20 141 -160 160 -160 20 0
160 140 160 160 0 20 -141 160 -160 160 -9 0 -48 -33 -88 -73z"/>
<path d="M3762 8397 c-34 -34 -62 -69 -62 -78 0 -19 121 -139 141 -139 19 0
139 121 139 141 0 19 -121 139 -141 139 -8 0 -43 -28 -77 -63z"/>
<path d="M8882 8397 c-34 -34 -62 -69 -62 -78 0 -19 121 -139 141 -139 19 0
139 121 139 141 0 19 -121 139 -141 139 -8 0 -43 -28 -77 -63z"/>
<path d="M3132 8387 c-29 -29 -52 -59 -52 -68 0 -19 101 -119 121 -119 19 0
119 101 119 121 0 19 -101 119 -121 119 -8 0 -38 -24 -67 -53z"/>
<path d="M9532 8387 c-29 -29 -52 -59 -52 -68 0 -19 101 -119 121 -119 19 0
119 101 119 121 0 19 -101 119 -121 119 -8 0 -38 -24 -67 -53z"/>
<path d="M2502 8377 c-23 -23 -42 -49 -42 -57 0 -19 80 -100 99 -100 20 0 101
80 101 99 0 20 -80 101 -100 101 -9 0 -35 -19 -58 -43z"/>
<path d="M10182 8377 c-23 -23 -42 -49 -42 -57 0 -19 80 -100 99 -100 20 0
101 80 101 99 0 20 -80 101 -100 101 -9 0 -35 -19 -58 -43z"/>
<path d="M1874 8366 c-19 -19 -34 -38 -34 -43 0 -5 18 -27 40 -48 l40 -39 40
39 c22 21 40 43 40 48 0 13 -66 77 -80 77 -7 0 -27 -15 -46 -34z"/>
<path d="M10834 8366 c-19 -19 -34 -38 -34 -43 0 -5 18 -27 40 -48 l40 -39 40
39 c22 21 40 43 40 48 0 13 -66 77 -80 77 -7 0 -27 -15 -46 -34z"/>
<path d="M1245 8350 l-29 -30 32 -33 32 -32 32 32 32 33 -29 30 c-16 16 -32
30 -35 30 -3 0 -19 -14 -35 -30z"/>
<path d="M11485 8350 l-29 -30 32 -33 32 -32 32 32 32 33 -29 30 c-16 16 -32
30 -35 30 -3 0 -19 -14 -35 -30z"/>
<path d="M615 8340 c-18 -20 -18 -21 3 -43 l22 -21 22 21 c21 22 21 23 3 43
-10 11 -21 20 -25 20 -4 0 -15 -9 -25 -20z"/>
<path d="M12135 8340 c-18 -20 -18 -21 3 -43 l22 -21 22 21 c21 22 21 23 3 43
-10 11 -21 20 -25 20 -4 0 -15 -9 -25 -20z"/>
<path d="M0 8320 c0 -19 3 -21 12 -12 9 9 9 15 0 24 -9 9 -12 7 -12 -12z"/>
<path d="M12784 8329 c-3 -6 -1 -16 5 -22 8 -8 11 -5 11 11 0 24 -5 28 -16 11z"/>
<path d="M5968 8112 c-61 -62 -88 -95 -88 -112 0 -33 167 -200 200 -200 17 0
50 27 112 88 61 62 88 95 88 112 0 17 -27 50 -88 112 -62 61 -95 88 -112 88
-17 0 -50 -27 -112 -88z"/>
<path d="M6608 8112 c-61 -62 -88 -95 -88 -112 0 -33 167 -200 200 -200 17 0
50 27 112 88 61 62 88 95 88 112 0 17 -27 50 -88 112 -62 61 -95 88 -112 88
-17 0 -50 -27 -112 -88z"/>
<path d="M5338 8102 c-53 -54 -78 -86 -78 -102 0 -16 25 -48 78 -102 54 -53
86 -78 102 -78 16 0 48 25 102 78 53 54 78 86 78 102 0 16 -25 48 -78 102 -54
53 -86 78 -102 78 -16 0 -48 -25 -102 -78z"/>
<path d="M7258 8102 c-53 -54 -78 -86 -78 -102 0 -16 25 -48 78 -102 54 -53
86 -78 102 -78 16 0 48 25 102 78 53 54 78 86 78 102 0 16 -25 48 -78 102 -54
53 -86 78 -102 78 -16 0 -48 -25 -102 -78z"/>
<path d="M4708 8092 c-45 -46 -68 -76 -68 -92 0 -16 23 -46 68 -92 46 -45 76
-68 92 -68 16 0 46 23 92 68 45 46 68 76 68 92 0 32 -128 160 -160 160 -16 0
-46 -23 -92 -68z"/>
<path d="M7908 8092 c-45 -46 -68 -76 -68 -92 0 -16 23 -46 68 -92 46 -45 76
-68 92 -68 32 0 160 128 160 160 0 16 -23 46 -68 92 -46 45 -76 68 -92 68 -16
0 -46 -23 -92 -68z"/>
<path d="M4082 8077 c-34 -34 -62 -69 -62 -78 0 -19 121 -139 141 -139 19 0
139 121 139 141 0 19 -121 139 -141 139 -8 0 -43 -28 -77 -63z"/>
<path d="M8562 8077 c-34 -34 -62 -69 -62 -78 0 -19 121 -139 141 -139 19 0
139 121 139 141 0 19 -121 139 -141 139 -8 0 -43 -28 -77 -63z"/>
<path d="M3452 8067 c-29 -29 -52 -59 -52 -68 0 -19 101 -119 121 -119 19 0
119 101 119 121 0 19 -101 119 -121 119 -8 0 -38 -24 -67 -53z"/>
<path d="M9212 8067 c-29 -29 -52 -59 -52 -68 0 -19 101 -119 121 -119 19 0
119 101 119 121 0 19 -101 119 -121 119 -8 0 -38 -24 -67 -53z"/>
<path d="M2822 8057 c-23 -23 -42 -49 -42 -57 0 -19 80 -100 99 -100 20 0 101
80 101 99 0 20 -80 101 -100 101 -9 0 -35 -19 -58 -43z"/>
<path d="M9862 8057 c-23 -23 -42 -49 -42 -57 0 -19 80 -100 99 -100 20 0 101
80 101 99 0 20 -80 101 -100 101 -9 0 -35 -19 -58 -43z"/>
<path d="M2190 8045 l-44 -45 39 -40 c21 -22 46 -40 55 -40 9 0 34 18 55 40
l39 40 -44 45 c-24 25 -47 45 -50 45 -3 0 -26 -20 -50 -45z"/>
<path d="M10510 8045 l-44 -45 39 -40 c21 -22 46 -40 55 -40 9 0 34 18 55 40
l39 40 -44 45 c-24 25 -47 45 -50 45 -3 0 -26 -20 -50 -45z"/>
<path d="M1560 8035 l-34 -35 37 -38 37 -37 37 37 37 38 -34 35 c-19 19 -37
35 -40 35 -3 0 -21 -16 -40 -35z"/>
<path d="M11160 8035 l-34 -35 37 -38 37 -37 37 37 37 38 -34 35 c-19 19 -37
35 -40 35 -3 0 -21 -16 -40 -35z"/>
<path d="M932 8027 c-20 -21 -21 -25 -6 -45 17 -24 43 -29 62 -10 17 17 15 42
-6 61 -24 22 -24 21 -50 -6z"/>
<path d="M11812 8027 c-20 -21 -21 -25 -6 -45 17 -24 43 -29 62 -10 17 17 15
42 -6 61 -24 22 -24 21 -50 -6z"/>
<path d="M300 8000 c0 -13 7 -20 20 -20 13 0 20 7 20 20 0 13 -7 20 -20 20
-13 0 -20 -7 -20 -20z"/>
<path d="M12460 8000 c0 -13 7 -20 20 -20 13 0 20 7 20 20 0 13 -7 20 -20 20
-13 0 -20 -7 -20 -20z"/>
<path d="M6268 7812 c-77 -77 -108 -115 -108 -132 0 -17 31 -55 108 -132 77
-77 115 -108 132 -108 17 0 55 31 132 108 77 77 108 115 108 132 0 17 -31 55
-108 132 -77 77 -115 108 -132 108 -17 0 -55 -31 -132 -108z"/>
<path d="M5735 7898 c-32 -17 -175 -160 -191 -191 -20 -37 -10 -53 85 -150 95
-98 121 -113 159 -93 32 17 175 161 191 193 9 18 8 29 -3 50 -25 49 -194 205
-218 203 -2 0 -12 -6 -23 -12z"/>
<path d="M7015 7898 c-32 -17 -175 -160 -191 -191 -20 -37 -10 -53 85 -150 95
-98 121 -113 159 -93 32 17 175 161 191 193 9 18 8 29 -3 50 -25 49 -194 205
-218 203 -2 0 -12 -6 -23 -12z"/>
<path d="M5007 7792 c-63 -63 -87 -94 -87 -112 0 -35 165 -200 200 -200 35 0
200 165 200 200 0 35 -164 200 -200 200 -19 0 -49 -23 -113 -88z"/>
<path d="M7567 7792 c-63 -63 -87 -94 -87 -112 0 -35 165 -200 200 -200 35 0
200 165 200 200 0 35 -164 200 -200 200 -19 0 -49 -23 -113 -88z"/>
<path d="M4378 7782 c-53 -54 -78 -86 -78 -102 0 -33 147 -180 180 -180 33 0
180 147 180 180 0 33 -147 180 -180 180 -16 0 -48 -25 -102 -78z"/>
<path d="M8218 7782 c-53 -54 -78 -86 -78 -102 0 -16 25 -48 78 -102 54 -53
86 -78 102 -78 16 0 48 25 102 78 53 54 78 86 78 102 0 16 -25 48 -78 102 -54
53 -86 78 -102 78 -16 0 -48 -25 -102 -78z"/>
<path d="M3752 7767 c-39 -40 -72 -79 -72 -87 0 -20 141 -160 160 -160 20 0
160 140 160 160 0 20 -141 160 -160 160 -9 0 -48 -33 -88 -73z"/>
<path d="M8872 7767 c-39 -40 -72 -79 -72 -87 0 -20 141 -160 160 -160 20 0
160 140 160 160 0 20 -141 160 -160 160 -9 0 -48 -33 -88 -73z"/>
<path d="M3123 7757 c-34 -35 -63 -70 -63 -77 0 -17 123 -140 140 -140 17 0
140 123 140 140 0 17 -123 140 -140 140 -7 0 -42 -28 -77 -63z"/>
<path d="M9523 7757 c-34 -35 -63 -70 -63 -77 0 -7 29 -42 63 -77 35 -34 70
-63 77 -63 7 0 42 29 77 63 35 35 63 70 63 77 0 7 -28 42 -63 77 -35 35 -70
63 -77 63 -7 0 -42 -28 -77 -63z"/>
<path d="M2497 7742 c-26 -26 -47 -54 -47 -63 0 -19 91 -109 111 -109 19 0
109 91 109 111 0 19 -91 109 -111 109 -8 0 -36 -22 -62 -48z"/>
<path d="M10177 7742 c-26 -26 -47 -54 -47 -63 0 -19 91 -109 111 -109 19 0
109 91 109 111 0 19 -91 109 -111 109 -8 0 -36 -22 -62 -48z"/>
<path d="M1867 7732 c-20 -21 -37 -45 -37 -53 0 -19 71 -89 91 -89 19 0 89 71
89 91 0 19 -71 89 -91 89 -8 0 -32 -17 -52 -38z"/>
<path d="M10827 7732 c-20 -21 -37 -45 -37 -53 0 -19 71 -89 91 -89 19 0 89
71 89 91 0 19 -71 89 -91 89 -8 0 -32 -17 -52 -38z"/>
<path d="M1240 7715 l-34 -35 37 -38 37 -37 37 37 37 38 -34 35 c-19 19 -37
35 -40 35 -3 0 -21 -16 -40 -35z"/>
<path d="M11480 7715 l-34 -35 37 -38 37 -37 37 37 37 38 -34 35 c-19 19 -37
35 -40 35 -3 0 -21 -16 -40 -35z"/>
<path d="M610 7705 c-26 -32 13 -81 48 -59 34 22 22 74 -18 74 -10 0 -23 -7
-30 -15z"/>
<path d="M12130 7705 c-26 -32 13 -81 48 -59 34 22 22 74 -18 74 -10 0 -23 -7
-30 -15z"/>
<path d="M0 7680 c0 -19 3 -21 12 -12 9 9 9 15 0 24 -9 9 -12 7 -12 -12z"/>
<path d="M12784 7689 c-3 -6 -1 -16 5 -22 8 -8 11 -5 11 11 0 24 -5 28 -16 11z"/>
<path d="M5957 7482 c-71 -71 -97 -104 -97 -122 0 -36 185 -220 220 -220 36 0
220 185 220 220 0 36 -185 220 -220 220 -19 0 -51 -26 -123 -98z"/>
<path d="M6597 7482 c-71 -71 -97 -104 -97 -122 0 -36 185 -220 220 -220 36 0
220 185 220 220 0 36 -185 220 -220 220 -19 0 -51 -26 -123 -98z"/>
<path d="M5327 7472 c-63 -63 -87 -94 -87 -112 0 -35 165 -200 200 -200 35 0
200 165 200 200 0 35 -164 200 -200 200 -19 0 -49 -23 -113 -88z"/>
<path d="M7247 7472 c-63 -63 -87 -94 -87 -112 0 -35 165 -200 200 -200 35 0
200 165 200 200 0 35 -164 200 -200 200 -19 0 -49 -23 -113 -88z"/>
<path d="M4698 7462 c-53 -54 -78 -86 -78 -102 0 -33 147 -180 180 -180 33 0
180 147 180 180 0 33 -147 180 -180 180 -16 0 -48 -25 -102 -78z"/>
<path d="M7898 7462 c-53 -54 -78 -86 -78 -102 0 -16 25 -48 78 -102 54 -53
86 -78 102 -78 16 0 48 25 102 78 53 54 78 86 78 102 0 16 -25 48 -78 102 -54
53 -86 78 -102 78 -16 0 -48 -25 -102 -78z"/>
<path d="M4072 7447 c-39 -40 -72 -79 -72 -87 0 -20 141 -160 160 -160 20 0
160 140 160 160 0 20 -141 160 -160 160 -9 0 -48 -33 -88 -73z"/>
<path d="M8552 7447 c-39 -40 -72 -79 -72 -87 0 -20 141 -160 160 -160 20 0
160 140 160 160 0 20 -141 160 -160 160 -9 0 -48 -33 -88 -73z"/>
<path d="M3442 7437 c-34 -34 -62 -69 -62 -78 0 -19 121 -139 141 -139 19 0
139 121 139 141 0 19 -121 139 -141 139 -8 0 -43 -28 -77 -63z"/>
<path d="M9202 7437 c-34 -34 -62 -69 -62 -78 0 -19 121 -139 141 -139 19 0
139 121 139 141 0 19 -121 139 -141 139 -8 0 -43 -28 -77 -63z"/>
<path d="M2813 7427 c-29 -30 -53 -60 -53 -67 0 -17 103 -120 120 -120 17 0
120 103 120 120 0 17 -103 120 -120 120 -7 0 -37 -24 -67 -53z"/>
<path d="M9853 7427 c-29 -30 -53 -60 -53 -67 0 -7 24 -37 53 -67 30 -29 60
-53 67 -53 7 0 37 24 67 53 29 30 53 60 53 67 0 7 -24 37 -53 67 -30 29 -60
53 -67 53 -7 0 -37 -24 -67 -53z"/>
<path d="M2185 7410 l-50 -50 53 -53 52 -52 52 52 53 53 -50 50 c-27 27 -52
50 -55 50 -3 0 -28 -23 -55 -50z"/>
<path d="M10505 7410 l-50 -50 53 -53 52 -52 52 52 53 53 -50 50 c-27 27 -52
50 -55 50 -3 0 -28 -23 -55 -50z"/>
<path d="M1557 7402 c-15 -15 -27 -35 -27 -43 0 -19 51 -69 70 -69 19 0 70 50
70 69 0 20 -50 71 -70 71 -9 0 -28 -13 -43 -28z"/>
<path d="M11157 7402 c-15 -15 -27 -35 -27 -43 0 -19 51 -69 70 -69 19 0 70
50 70 69 0 20 -50 71 -70 71 -9 0 -28 -13 -43 -28z"/>
<path d="M927 7392 c-22 -24 -21 -45 1 -65 24 -22 45 -21 65 1 22 24 21 45 -1
65 -24 22 -45 21 -65 -1z"/>
<path d="M11807 7392 c-22 -24 -21 -45 1 -65 24 -22 45 -21 65 1 22 24 21 45
-1 65 -24 22 -45 21 -65 -1z"/>
<path d="M300 7374 c-11 -12 -10 -18 3 -32 16 -15 18 -15 34 0 13 14 14 20 3
32 -7 9 -16 16 -20 16 -4 0 -13 -7 -20 -16z"/>
<path d="M12460 7374 c-11 -12 -10 -18 3 -32 16 -15 18 -15 34 0 13 14 14 20
3 32 -7 9 -16 16 -20 16 -4 0 -13 -7 -20 -16z"/>
<path d="M6253 7187 c-100 -100 -113 -117 -113 -147 0 -30 13 -47 113 -147
100 -100 117 -113 147 -113 30 0 47 13 147 113 100 100 113 117 113 147 0 30
-13 47 -113 147 -100 100 -117 113 -147 113 -30 0 -47 -13 -147 -113z"/>
<path d="M5622 7177 c-83 -83 -112 -119 -112 -137 0 -36 215 -250 250 -250 36
0 250 215 250 250 0 36 -215 250 -250 250 -19 0 -54 -29 -138 -113z"/>
<path d="M6902 7177 c-83 -83 -112 -119 -112 -137 0 -36 215 -250 250 -250 36
0 250 215 250 250 0 36 -215 250 -250 250 -19 0 -54 -29 -138 -113z"/>
<path d="M5095 7258 c-32 -17 -175 -160 -191 -191 -11 -21 -12 -32 -3 -50 16
-32 159 -176 192 -193 37 -20 63 -5 158 93 95 97 105 113 85 150 -25 49 -194
205 -218 203 -2 0 -12 -6 -23 -12z"/>
<path d="M7655 7258 c-32 -17 -175 -160 -191 -191 -20 -37 -10 -53 85 -150 95
-98 121 -113 159 -93 32 17 175 161 191 193 9 18 8 29 -3 50 -25 49 -194 205
-218 203 -2 0 -12 -6 -23 -12z"/>
<path d="M4367 7152 c-64 -64 -87 -94 -87 -113 0 -34 166 -199 201 -199 33 0
199 167 199 200 0 35 -165 200 -200 200 -19 0 -49 -23 -113 -88z"/>
<path d="M8207 7152 c-64 -64 -87 -94 -87 -113 0 -34 166 -199 201 -199 33 0
199 167 199 200 0 35 -165 200 -200 200 -19 0 -49 -23 -113 -88z"/>
<path d="M3743 7137 c-46 -46 -83 -89 -83 -97 0 -18 162 -180 180 -180 18 0
180 162 180 180 0 18 -162 180 -180 180 -8 0 -51 -37 -97 -83z"/>
<path d="M8863 7137 c-46 -46 -83 -89 -83 -97 0 -8 37 -51 83 -97 46 -46 89
-83 97 -83 8 0 51 37 97 83 46 46 83 89 83 97 0 8 -37 51 -83 97 -46 46 -89
83 -97 83 -8 0 -51 -37 -97 -83z"/>
<path d="M3117 7122 c-37 -37 -67 -74 -67 -83 0 -19 131 -149 151 -149 19 0
149 131 149 151 0 19 -131 149 -151 149 -8 0 -45 -30 -82 -68z"/>
<path d="M9517 7122 c-37 -37 -67 -74 -67 -83 0 -19 131 -149 151 -149 19 0
149 131 149 151 0 19 -131 149 -151 149 -8 0 -45 -30 -82 -68z"/>
<path d="M2488 7112 c-32 -33 -58 -65 -58 -72 0 -17 113 -130 130 -130 17 0
130 113 130 130 0 17 -113 130 -130 130 -7 0 -39 -26 -72 -58z"/>
<path d="M10168 7112 c-32 -33 -58 -65 -58 -72 0 -7 26 -39 58 -72 33 -32 65
-58 72 -58 17 0 130 113 130 130 0 17 -113 130 -130 130 -7 0 -39 -26 -72 -58z"/>
<path d="M1862 7097 c-23 -23 -42 -49 -42 -57 0 -19 80 -100 99 -100 20 0 101
80 101 99 0 20 -80 101 -100 101 -9 0 -35 -19 -58 -43z"/>
<path d="M10822 7097 c-23 -23 -42 -49 -42 -57 0 -19 80 -100 99 -100 20 0
101 80 101 99 0 20 -80 101 -100 101 -9 0 -35 -19 -58 -43z"/>
<path d="M1235 7080 l-39 -40 42 -43 42 -42 42 42 42 43 -39 40 c-21 22 -42
40 -45 40 -3 0 -24 -18 -45 -40z"/>
<path d="M11475 7080 l-39 -40 42 -43 42 -42 42 42 42 43 -39 40 c-21 22 -42
40 -45 40 -3 0 -24 -18 -45 -40z"/>
<path d="M610 7065 l-24 -26 27 -27 27 -27 27 27 27 27 -24 26 c-13 14 -26 25
-30 25 -4 0 -17 -11 -30 -25z"/>
<path d="M12130 7065 l-24 -26 27 -27 27 -27 27 27 27 27 -24 26 c-13 14 -26
25 -30 25 -4 0 -17 -11 -30 -25z"/>
<path d="M0 7040 c0 -11 5 -20 10 -20 6 0 10 9 10 20 0 11 -4 20 -10 20 -5 0
-10 -9 -10 -20z"/>
<path d="M12780 7040 c0 -11 5 -20 10 -20 6 0 10 9 10 20 0 11 -4 20 -10 20
-5 0 -10 -9 -10 -20z"/>
<path d="M5943 6857 c-81 -81 -113 -120 -113 -137 0 -17 32 -56 113 -137 81
-81 120 -113 137 -113 34 0 250 216 250 250 0 17 -32 56 -113 137 -81 81 -120
113 -137 113 -17 0 -56 -32 -137 -113z"/>
<path d="M6583 6857 c-81 -81 -113 -120 -113 -137 0 -17 32 -56 113 -137 81
-81 120 -113 137 -113 34 0 250 216 250 250 0 17 -32 56 -113 137 -81 81 -120
113 -137 113 -17 0 -56 -32 -137 -113z"/>
<path d="M5317 6842 c-71 -71 -97 -104 -97 -122 0 -36 185 -220 220 -220 36 0
220 185 220 220 0 36 -185 220 -220 220 -19 0 -51 -26 -123 -98z"/>
<path d="M7237 6842 c-71 -71 -97 -104 -97 -122 0 -36 185 -220 220 -220 36 0
220 185 220 220 0 36 -185 220 -220 220 -19 0 -51 -26 -123 -98z"/>
<path d="M4688 6832 c-61 -62 -88 -95 -88 -112 0 -33 167 -200 200 -200 33 0
200 167 200 200 0 33 -167 200 -200 200 -17 0 -50 -27 -112 -88z"/>
<path d="M7888 6832 c-61 -62 -88 -95 -88 -112 0 -33 167 -200 200 -200 17 0
50 27 112 88 61 62 88 95 88 112 0 17 -27 50 -88 112 -62 61 -95 88 -112 88
-17 0 -50 -27 -112 -88z"/>
<path d="M4062 6817 c-45 -45 -82 -89 -82 -97 0 -20 161 -180 180 -180 20 0
180 161 180 180 0 20 -161 180 -180 180 -9 0 -52 -37 -98 -83z"/>
<path d="M8542 6817 c-45 -45 -82 -89 -82 -97 0 -20 161 -180 180 -180 20 0
180 161 180 180 0 20 -161 180 -180 180 -9 0 -52 -37 -98 -83z"/>
<path d="M3432 6807 c-41 -42 -62 -71 -62 -86 0 -33 118 -151 150 -151 33 0
150 118 150 151 0 34 -116 149 -151 149 -17 0 -43 -19 -87 -63z"/>
<path d="M9192 6807 c-41 -42 -62 -71 -62 -86 0 -33 118 -151 150 -151 33 0
150 118 150 151 0 34 -116 149 -151 149 -17 0 -43 -19 -87 -63z"/>
<path d="M2807 6792 c-31 -32 -57 -64 -57 -73 0 -19 111 -129 131 -129 19 0
129 111 129 131 0 19 -111 129 -131 129 -8 0 -40 -26 -72 -58z"/>
<path d="M9847 6792 c-31 -32 -57 -64 -57 -73 0 -19 111 -129 131 -129 19 0
129 111 129 131 0 19 -111 129 -131 129 -8 0 -40 -26 -72 -58z"/>
<path d="M2180 6775 l-55 -55 58 -58 57 -57 57 57 58 58 -55 55 c-30 30 -57
55 -60 55 -3 0 -30 -25 -60 -55z"/>
<path d="M10500 6775 l-55 -55 58 -58 57 -57 57 57 58 58 -55 55 c-30 30 -57
55 -60 55 -3 0 -30 -25 -60 -55z"/>
<path d="M1552 6767 c-18 -18 -32 -40 -32 -48 0 -19 61 -79 81 -79 19 0 79 61
79 81 0 19 -61 79 -81 79 -8 0 -29 -15 -47 -33z"/>
<path d="M11152 6767 c-18 -18 -32 -40 -32 -48 0 -19 61 -79 81 -79 19 0 79
61 79 81 0 19 -61 79 -81 79 -8 0 -29 -15 -47 -33z"/>
<path d="M925 6750 l-29 -30 32 -33 32 -32 32 32 32 33 -29 30 c-16 16 -32 30
-35 30 -3 0 -19 -14 -35 -30z"/>
<path d="M11805 6750 l-29 -30 32 -33 32 -32 32 32 32 33 -29 30 c-16 16 -32
30 -35 30 -3 0 -19 -14 -35 -30z"/>
<path d="M294 6736 c-10 -26 4 -48 28 -44 17 2 23 10 23 28 0 18 -6 26 -23 28
-13 2 -25 -3 -28 -12z"/>
<path d="M12454 6736 c-10 -26 4 -48 28 -44 17 2 23 10 23 28 0 18 -6 26 -23
28 -13 2 -25 -3 -28 -12z"/>
<path d="M6248 6552 c-93 -93 -128 -134 -128 -152 0 -18 35 -59 128 -152 93
-93 134 -128 152 -128 18 0 59 35 152 128 93 93 128 134 128 152 0 18 -35 59
-128 152 -93 93 -134 128 -152 128 -18 0 -59 -35 -152 -128z"/>
<path d="M5613 6547 c-100 -100 -113 -117 -113 -147 0 -30 13 -47 113 -147
100 -100 117 -113 147 -113 30 0 47 13 147 113 100 100 113 117 113 147 0 30
-13 47 -113 147 -100 100 -117 113 -147 113 -30 0 -47 -13 -147 -113z"/>
<path d="M6893 6547 c-100 -100 -113 -117 -113 -147 0 -30 13 -47 113 -147
100 -100 117 -113 147 -113 30 0 47 13 147 113 100 100 113 117 113 147 0 30
-13 47 -113 147 -100 100 -117 113 -147 113 -30 0 -47 -13 -147 -113z"/>
<path d="M4988 6532 c-77 -77 -108 -115 -108 -132 0 -17 31 -55 108 -132 77
-77 115 -108 132 -108 17 0 55 31 132 108 77 77 108 115 108 132 0 17 -31 55
-108 132 -77 77 -115 108 -132 108 -17 0 -55 -31 -132 -108z"/>
<path d="M7548 6532 c-77 -77 -108 -115 -108 -132 0 -17 31 -55 108 -132 77
-77 115 -108 132 -108 17 0 55 31 132 108 77 77 108 115 108 132 0 17 -31 55
-108 132 -77 77 -115 108 -132 108 -17 0 -55 -31 -132 -108z"/>
<path d="M4362 6517 c-67 -67 -92 -99 -92 -117 0 -36 175 -210 210 -210 36 0
210 175 210 210 0 36 -175 210 -210 210 -19 0 -50 -25 -118 -93z"/>
<path d="M8202 6517 c-67 -67 -92 -99 -92 -117 0 -36 175 -210 210 -210 36 0
210 175 210 210 0 36 -175 210 -210 210 -19 0 -50 -25 -118 -93z"/>
<path d="M3738 6502 c-48 -49 -88 -94 -88 -102 0 -18 172 -190 190 -190 18 0
190 172 190 190 0 18 -172 190 -190 190 -8 0 -53 -40 -102 -88z"/>
<path d="M8858 6502 c-48 -49 -88 -94 -88 -102 0 -8 40 -53 88 -102 49 -48 94
-88 102 -88 18 0 190 172 190 190 0 8 -40 53 -88 102 -49 48 -94 88 -102 88
-8 0 -53 -40 -102 -88z"/>
<path d="M3112 6487 c-39 -40 -72 -79 -72 -87 0 -20 141 -160 160 -160 20 0
160 140 160 160 0 20 -141 160 -160 160 -9 0 -48 -33 -88 -73z"/>
<path d="M9512 6487 c-39 -40 -72 -79 -72 -87 0 -20 141 -160 160 -160 20 0
160 140 160 160 0 20 -141 160 -160 160 -9 0 -48 -33 -88 -73z"/>
<path d="M2487 6472 c-31 -32 -57 -64 -57 -73 0 -19 111 -129 131 -129 19 0
129 111 129 131 0 19 -111 129 -131 129 -8 0 -40 -26 -72 -58z"/>
<path d="M10167 6472 c-31 -32 -57 -64 -57 -73 0 -19 111 -129 131 -129 19 0
129 111 129 131 0 19 -111 129 -131 129 -8 0 -40 -26 -72 -58z"/>
<path d="M1860 6460 c-28 -27 -50 -53 -50 -57 0 -5 25 -33 55 -63 l55 -54 55
54 c30 30 55 58 55 63 0 12 -97 107 -110 107 -6 0 -33 -22 -60 -50z"/>
<path d="M10820 6460 c-28 -27 -50 -53 -50 -57 0 -5 25 -33 55 -63 l55 -54 55
54 c30 30 55 58 55 63 0 12 -97 107 -110 107 -6 0 -33 -22 -60 -50z"/>
<path d="M1232 6447 c-18 -18 -32 -40 -32 -48 0 -19 61 -79 81 -79 19 0 79 61
79 81 0 19 -61 79 -81 79 -8 0 -29 -15 -47 -33z"/>
<path d="M11472 6447 c-18 -18 -32 -40 -32 -48 0 -19 61 -79 81 -79 19 0 79
61 79 81 0 19 -61 79 -81 79 -8 0 -29 -15 -47 -33z"/>
<path d="M607 6432 c-22 -24 -21 -45 1 -65 24 -22 45 -21 65 1 22 24 21 45 -1
65 -24 22 -45 21 -65 -1z"/>
<path d="M12127 6432 c-22 -24 -21 -45 1 -65 24 -22 45 -21 65 1 22 24 21 45
-1 65 -24 22 -45 21 -65 -1z"/>
<path d="M0 6400 c0 -32 1 -33 17 -17 16 16 16 18 0 34 -16 16 -17 15 -17 -17z"/>
<path d="M12780 6414 c-11 -12 -10 -18 3 -32 16 -15 17 -14 17 16 0 36 -2 38
-20 16z"/>
<path d="M5943 6217 c-81 -81 -113 -120 -113 -137 0 -17 32 -56 113 -137 81
-81 120 -113 137 -113 34 0 250 216 250 250 0 17 -32 56 -113 137 -81 81 -120
113 -137 113 -17 0 -56 -32 -137 -113z"/>
<path d="M6583 6217 c-81 -81 -113 -120 -113 -137 0 -17 32 -56 113 -137 81
-81 120 -113 137 -113 34 0 250 216 250 250 0 17 -32 56 -113 137 -81 81 -120
113 -137 113 -17 0 -56 -32 -137 -113z"/>
<path d="M5317 6202 c-71 -71 -97 -104 -97 -122 0 -36 185 -220 220 -220 36 0
220 185 220 220 0 36 -185 220 -220 220 -19 0 -51 -26 -123 -98z"/>
<path d="M7237 6202 c-71 -71 -97 -104 -97 -122 0 -36 185 -220 220 -220 36 0
220 185 220 220 0 36 -185 220 -220 220 -19 0 -51 -26 -123 -98z"/>
<path d="M4688 6192 c-61 -62 -88 -95 -88 -112 0 -33 167 -200 200 -200 33 0
200 167 200 200 0 33 -167 200 -200 200 -17 0 -50 -27 -112 -88z"/>
<path d="M7888 6192 c-61 -62 -88 -95 -88 -112 0 -33 167 -200 200 -200 17 0
50 27 112 88 61 62 88 95 88 112 0 17 -27 50 -88 112 -62 61 -95 88 -112 88
-17 0 -50 -27 -112 -88z"/>
<path d="M4062 6177 c-45 -45 -82 -89 -82 -97 0 -20 161 -180 180 -180 20 0
180 161 180 180 0 20 -161 180 -180 180 -9 0 -52 -37 -98 -83z"/>
<path d="M8542 6177 c-45 -45 -82 -89 -82 -97 0 -20 161 -180 180 -180 20 0
180 161 180 180 0 20 -161 180 -180 180 -9 0 -52 -37 -98 -83z"/>
<path d="M3432 6167 c-41 -42 -62 -71 -62 -86 0 -33 118 -151 150 -151 33 0
150 118 150 151 0 34 -116 149 -151 149 -17 0 -43 -19 -87 -63z"/>
<path d="M9192 6167 c-41 -42 -62 -71 -62 -86 0 -33 118 -151 150 -151 33 0
150 118 150 151 0 34 -116 149 -151 149 -17 0 -43 -19 -87 -63z"/>
<path d="M2807 6152 c-31 -32 -57 -64 -57 -73 0 -19 111 -129 131 -129 19 0
129 111 129 131 0 19 -111 129 -131 129 -8 0 -40 -26 -72 -58z"/>
<path d="M9847 6152 c-31 -32 -57 -64 -57 -73 0 -19 111 -129 131 -129 19 0
129 111 129 131 0 19 -111 129 -131 129 -8 0 -40 -26 -72 -58z"/>
<path d="M2180 6135 l-55 -55 58 -58 57 -57 57 57 58 58 -55 55 c-30 30 -57
55 -60 55 -3 0 -30 -25 -60 -55z"/>
<path d="M10500 6135 l-55 -55 58 -58 57 -57 57 57 58 58 -55 55 c-30 30 -57
55 -60 55 -3 0 -30 -25 -60 -55z"/>
<path d="M1552 6127 c-18 -18 -32 -40 -32 -48 0 -19 61 -79 81 -79 19 0 79 61
79 81 0 19 -61 79 -81 79 -8 0 -29 -15 -47 -33z"/>
<path d="M11152 6127 c-18 -18 -32 -40 -32 -48 0 -19 61 -79 81 -79 19 0 79
61 79 81 0 19 -61 79 -81 79 -8 0 -29 -15 -47 -33z"/>
<path d="M925 6110 l-29 -30 32 -33 32 -32 32 32 32 33 -29 30 c-16 16 -32 30
-35 30 -3 0 -19 -14 -35 -30z"/>
<path d="M11805 6110 l-29 -30 32 -33 32 -32 32 32 32 33 -29 30 c-16 16 -32
30 -35 30 -3 0 -19 -14 -35 -30z"/>
<path d="M294 6096 c-10 -26 4 -48 28 -44 17 2 23 10 23 28 0 18 -6 26 -23 28
-13 2 -25 -3 -28 -12z"/>
<path d="M12454 6096 c-10 -26 4 -48 28 -44 17 2 23 10 23 28 0 18 -6 26 -23
28 -13 2 -25 -3 -28 -12z"/>
<path d="M6253 5907 c-100 -100 -113 -117 -113 -147 0 -30 13 -47 113 -147
100 -100 117 -113 147 -113 30 0 47 13 147 113 100 100 113 117 113 147 0 30
-13 47 -113 147 -100 100 -117 113 -147 113 -30 0 -47 -13 -147 -113z"/>
<path d="M5622 5897 c-83 -83 -112 -119 -112 -137 0 -36 215 -250 250 -250 36
0 250 215 250 250 0 36 -215 250 -250 250 -19 0 -54 -29 -138 -113z"/>
<path d="M6902 5897 c-83 -83 -112 -119 -112 -137 0 -36 215 -250 250 -250 36
0 250 215 250 250 0 36 -215 250 -250 250 -19 0 -54 -29 -138 -113z"/>
<path d="M5095 5978 c-32 -17 -175 -160 -191 -191 -20 -37 -10 -53 85 -150 95
-98 121 -113 159 -93 32 17 175 161 191 193 9 18 8 29 -3 50 -25 49 -194 205
-218 203 -2 0 -12 -6 -23 -12z"/>
<path d="M7655 5978 c-32 -17 -175 -160 -191 -191 -20 -37 -10 -53 85 -150 95
-98 121 -113 159 -93 32 17 175 161 191 193 9 18 8 29 -3 50 -25 49 -194 205
-218 203 -2 0 -12 -6 -23 -12z"/>
<path d="M4367 5872 c-64 -64 -87 -94 -87 -113 0 -34 166 -199 201 -199 33 0
199 167 199 200 0 35 -165 200 -200 200 -19 0 -49 -23 -113 -88z"/>
<path d="M8207 5872 c-64 -64 -87 -94 -87 -113 0 -34 166 -199 201 -199 33 0
199 167 199 200 0 35 -165 200 -200 200 -19 0 -49 -23 -113 -88z"/>
<path d="M3743 5857 c-46 -46 -83 -89 -83 -97 0 -18 162 -180 180 -180 18 0
180 162 180 180 0 18 -162 180 -180 180 -8 0 -51 -37 -97 -83z"/>
<path d="M8863 5857 c-46 -46 -83 -89 -83 -97 0 -8 37 -51 83 -97 46 -46 89
-83 97 -83 8 0 51 37 97 83 46 46 83 89 83 97 0 8 -37 51 -83 97 -46 46 -89
83 -97 83 -8 0 -51 -37 -97 -83z"/>
<path d="M3117 5842 c-37 -37 -67 -74 -67 -83 0 -19 131 -149 151 -149 19 0
149 131 149 151 0 19 -131 149 -151 149 -8 0 -45 -30 -82 -68z"/>
<path d="M9517 5842 c-37 -37 -67 -74 -67 -83 0 -19 131 -149 151 -149 19 0
149 131 149 151 0 19 -131 149 -151 149 -8 0 -45 -30 -82 -68z"/>
<path d="M2488 5832 c-32 -33 -58 -65 -58 -72 0 -17 113 -130 130 -130 17 0
130 113 130 130 0 17 -113 130 -130 130 -7 0 -39 -26 -72 -58z"/>
<path d="M10168 5832 c-32 -33 -58 -65 -58 -72 0 -7 26 -39 58 -72 33 -32 65
-58 72 -58 17 0 130 113 130 130 0 17 -113 130 -130 130 -7 0 -39 -26 -72 -58z"/>
<path d="M1862 5817 c-23 -23 -42 -49 -42 -57 0 -19 80 -100 99 -100 20 0 101
80 101 99 0 20 -80 101 -100 101 -9 0 -35 -19 -58 -43z"/>
<path d="M10822 5817 c-23 -23 -42 -49 -42 -57 0 -19 80 -100 99 -100 20 0
101 80 101 99 0 20 -80 101 -100 101 -9 0 -35 -19 -58 -43z"/>
<path d="M1235 5800 l-39 -40 42 -43 42 -42 42 42 42 43 -39 40 c-21 22 -42
40 -45 40 -3 0 -24 -18 -45 -40z"/>
<path d="M11475 5800 l-39 -40 42 -43 42 -42 42 42 42 43 -39 40 c-21 22 -42
40 -45 40 -3 0 -24 -18 -45 -40z"/>
<path d="M610 5785 l-24 -26 27 -27 27 -27 27 27 27 27 -24 26 c-13 14 -26 25
-30 25 -4 0 -17 -11 -30 -25z"/>
<path d="M12130 5785 l-24 -26 27 -27 27 -27 27 27 27 27 -24 26 c-13 14 -26
25 -30 25 -4 0 -17 -11 -30 -25z"/>
<path d="M0 5760 c0 -11 5 -20 10 -20 6 0 10 9 10 20 0 11 -4 20 -10 20 -5 0
-10 -9 -10 -20z"/>
<path d="M12780 5760 c0 -11 5 -20 10 -20 6 0 10 9 10 20 0 11 -4 20 -10 20
-5 0 -10 -9 -10 -20z"/>
<path d="M5957 5562 c-71 -71 -97 -104 -97 -122 0 -36 185 -220 220 -220 36 0
220 185 220 220 0 36 -185 220 -220 220 -19 0 -51 -26 -123 -98z"/>
<path d="M6597 5562 c-71 -71 -97 -104 -97 -122 0 -36 185 -220 220 -220 36 0
220 185 220 220 0 36 -185 220 -220 220 -19 0 -51 -26 -123 -98z"/>
<path d="M5327 5552 c-63 -63 -87 -94 -87 -112 0 -35 165 -200 200 -200 35 0
200 165 200 200 0 35 -164 200 -200 200 -19 0 -49 -23 -113 -88z"/>
<path d="M7247 5552 c-63 -63 -87 -94 -87 -112 0 -35 165 -200 200 -200 35 0
200 165 200 200 0 35 -164 200 -200 200 -19 0 -49 -23 -113 -88z"/>
<path d="M4698 5542 c-53 -54 -78 -86 -78 -102 0 -33 147 -180 180 -180 33 0
180 147 180 180 0 33 -147 180 -180 180 -16 0 -48 -25 -102 -78z"/>
<path d="M7898 5542 c-53 -54 -78 -86 -78 -102 0 -16 25 -48 78 -102 54 -53
86 -78 102 -78 16 0 48 25 102 78 53 54 78 86 78 102 0 16 -25 48 -78 102 -54
53 -86 78 -102 78 -16 0 -48 -25 -102 -78z"/>
<path d="M4072 5527 c-39 -40 -72 -79 -72 -87 0 -20 141 -160 160 -160 20 0
160 140 160 160 0 20 -141 160 -160 160 -9 0 -48 -33 -88 -73z"/>
<path d="M8552 5527 c-39 -40 -72 -79 -72 -87 0 -20 141 -160 160 -160 20 0
160 140 160 160 0 20 -141 160 -160 160 -9 0 -48 -33 -88 -73z"/>
<path d="M3442 5517 c-34 -34 -62 -69 -62 -78 0 -19 121 -139 141 -139 19 0
139 121 139 141 0 19 -121 139 -141 139 -8 0 -43 -28 -77 -63z"/>
<path d="M9202 5517 c-34 -34 -62 -69 -62 -78 0 -19 121 -139 141 -139 19 0
139 121 139 141 0 19 -121 139 -141 139 -8 0 -43 -28 -77 -63z"/>
<path d="M2813 5507 c-29 -30 -53 -60 -53 -67 0 -17 103 -120 120 -120 17 0
120 103 120 120 0 17 -103 120 -120 120 -7 0 -37 -24 -67 -53z"/>
<path d="M9853 5507 c-29 -30 -53 -60 -53 -67 0 -7 24 -37 53 -67 30 -29 60
-53 67 -53 7 0 37 24 67 53 29 30 53 60 53 67 0 7 -24 37 -53 67 -30 29 -60
53 -67 53 -7 0 -37 -24 -67 -53z"/>
<path d="M2185 5490 l-50 -50 53 -53 52 -52 52 52 53 53 -50 50 c-27 27 -52
50 -55 50 -3 0 -28 -23 -55 -50z"/>
<path d="M10505 5490 l-50 -50 53 -53 52 -52 52 52 53 53 -50 50 c-27 27 -52
50 -55 50 -3 0 -28 -23 -55 -50z"/>
<path d="M1557 5482 c-15 -15 -27 -35 -27 -43 0 -19 51 -69 70 -69 19 0 70 50
70 69 0 20 -50 71 -70 71 -9 0 -28 -13 -43 -28z"/>
<path d="M11157 5482 c-15 -15 -27 -35 -27 -43 0 -19 51 -69 70 -69 19 0 70
50 70 69 0 20 -50 71 -70 71 -9 0 -28 -13 -43 -28z"/>
<path d="M927 5472 c-22 -24 -21 -45 1 -65 24 -22 45 -21 65 1 22 24 21 45 -1
65 -24 22 -45 21 -65 -1z"/>
<path d="M11807 5472 c-22 -24 -21 -45 1 -65 24 -22 45 -21 65 1 22 24 21 45
-1 65 -24 22 -45 21 -65 -1z"/>
<path d="M300 5454 c-11 -12 -10 -18 3 -32 16 -15 18 -15 34 0 13 14 14 20 3
32 -7 9 -16 16 -20 16 -4 0 -13 -7 -20 -16z"/>
<path d="M12460 5454 c-11 -12 -10 -18 3 -32 16 -15 18 -15 34 0 13 14 14 20
3 32 -7 9 -16 16 -20 16 -4 0 -13 -7 -20 -16z"/>
<path d="M6268 5252 c-77 -77 -108 -115 -108 -132 0 -34 206 -240 240 -240 34
0 240 206 240 240 0 17 -31 55 -108 132 -77 77 -115 108 -132 108 -17 0 -55
-31 -132 -108z"/>
<path d="M5735 5338 c-32 -17 -175 -160 -191 -191 -20 -37 -10 -53 85 -150 95
-98 121 -113 159 -93 32 17 175 161 191 193 9 18 8 29 -3 50 -25 49 -194 205
-218 203 -2 0 -12 -6 -23 -12z"/>
<path d="M7015 5338 c-32 -17 -175 -160 -191 -191 -20 -37 -10 -53 85 -150 95
-98 121 -113 159 -93 32 17 175 161 191 193 9 18 8 29 -3 50 -25 49 -194 205
-218 203 -2 0 -12 -6 -23 -12z"/>
<path d="M5007 5232 c-63 -63 -87 -94 -87 -112 0 -35 165 -200 200 -200 35 0
200 165 200 200 0 35 -164 200 -200 200 -19 0 -49 -23 -113 -88z"/>
<path d="M7567 5232 c-63 -63 -87 -94 -87 -112 0 -35 165 -200 200 -200 35 0
200 165 200 200 0 35 -164 200 -200 200 -19 0 -49 -23 -113 -88z"/>
<path d="M4378 5222 c-53 -54 -78 -86 -78 -102 0 -16 25 -48 78 -102 54 -53
86 -78 102 -78 16 0 48 25 102 78 53 54 78 86 78 102 0 33 -147 180 -180 180
-16 0 -48 -25 -102 -78z"/>
<path d="M8218 5222 c-53 -54 -78 -86 -78 -102 0 -33 147 -180 180 -180 33 0
180 147 180 180 0 16 -25 48 -78 102 -54 53 -86 78 -102 78 -16 0 -48 -25
-102 -78z"/>
<path d="M3752 5207 c-39 -40 -72 -79 -72 -87 0 -20 141 -160 160 -160 20 0
160 140 160 160 0 20 -141 160 -160 160 -9 0 -48 -33 -88 -73z"/>
<path d="M8872 5207 c-39 -40 -72 -79 -72 -87 0 -20 141 -160 160 -160 20 0
160 140 160 160 0 20 -141 160 -160 160 -9 0 -48 -33 -88 -73z"/>
<path d="M3123 5197 c-34 -35 -63 -70 -63 -77 0 -7 29 -42 63 -77 35 -34 70
-63 77 -63 7 0 42 29 77 63 35 35 63 70 63 77 0 17 -123 140 -140 140 -7 0
-42 -28 -77 -63z"/>
<path d="M9523 5197 c-34 -35 -63 -70 -63 -77 0 -17 123 -140 140 -140 17 0
140 123 140 140 0 7 -28 42 -63 77 -35 35 -70 63 -77 63 -7 0 -42 -28 -77 -63z"/>
<path d="M2497 5182 c-26 -26 -47 -54 -47 -63 0 -19 91 -109 111 -109 19 0
109 91 109 111 0 19 -91 109 -111 109 -8 0 -36 -22 -62 -48z"/>
<path d="M10177 5182 c-26 -26 -47 -54 -47 -63 0 -19 91 -109 111 -109 19 0
109 91 109 111 0 19 -91 109 -111 109 -8 0 -36 -22 -62 -48z"/>
<path d="M1867 5172 c-20 -21 -37 -45 -37 -53 0 -19 71 -89 91 -89 19 0 89 71
89 91 0 19 -71 89 -91 89 -8 0 -32 -17 -52 -38z"/>
<path d="M10827 5172 c-20 -21 -37 -45 -37 -53 0 -19 71 -89 91 -89 19 0 89
71 89 91 0 19 -71 89 -91 89 -8 0 -32 -17 -52 -38z"/>
<path d="M1240 5155 l-34 -35 37 -38 37 -37 37 37 37 38 -34 35 c-19 19 -37
35 -40 35 -3 0 -21 -16 -40 -35z"/>
<path d="M11480 5155 l-34 -35 37 -38 37 -37 37 37 37 38 -34 35 c-19 19 -37
35 -40 35 -3 0 -21 -16 -40 -35z"/>
<path d="M610 5145 c-26 -32 13 -81 48 -59 34 22 22 74 -18 74 -10 0 -23 -7
-30 -15z"/>
<path d="M12130 5145 c-26 -32 13 -81 48 -59 34 22 22 74 -18 74 -10 0 -23 -7
-30 -15z"/>
<path d="M0 5120 c0 -19 3 -21 12 -12 9 9 9 15 0 24 -9 9 -12 7 -12 -12z"/>
<path d="M12784 5129 c-3 -6 -1 -16 5 -22 8 -8 11 -5 11 11 0 24 -5 28 -16 11z"/>
<path d="M5968 4912 c-61 -62 -88 -95 -88 -112 0 -33 167 -200 200 -200 33 0
200 167 200 200 0 33 -167 200 -200 200 -17 0 -50 -27 -112 -88z"/>
<path d="M6608 4912 c-61 -62 -88 -95 -88 -112 0 -33 167 -200 200 -200 33 0
200 167 200 200 0 33 -167 200 -200 200 -17 0 -50 -27 -112 -88z"/>
<path d="M5338 4902 c-53 -54 -78 -86 -78 -102 0 -33 147 -180 180 -180 33 0
180 147 180 180 0 33 -147 180 -180 180 -16 0 -48 -25 -102 -78z"/>
<path d="M7258 4902 c-53 -54 -78 -86 -78 -102 0 -33 147 -180 180 -180 33 0
180 147 180 180 0 33 -147 180 -180 180 -16 0 -48 -25 -102 -78z"/>
<path d="M4708 4892 c-45 -46 -68 -76 -68 -92 0 -32 128 -160 160 -160 32 0
160 128 160 160 0 16 -23 46 -68 92 -46 45 -76 68 -92 68 -16 0 -46 -23 -92
-68z"/>
<path d="M7908 4892 c-45 -46 -68 -76 -68 -92 0 -32 128 -160 160 -160 32 0
160 128 160 160 0 32 -128 160 -160 160 -16 0 -46 -23 -92 -68z"/>
<path d="M4082 4877 c-34 -34 -62 -69 -62 -78 0 -19 121 -139 141 -139 19 0
139 121 139 141 0 19 -121 139 -141 139 -8 0 -43 -28 -77 -63z"/>
<path d="M8562 4877 c-34 -34 -62 -69 -62 -78 0 -19 121 -139 141 -139 19 0
139 121 139 141 0 19 -121 139 -141 139 -8 0 -43 -28 -77 -63z"/>
<path d="M3452 4867 c-29 -29 -52 -59 -52 -68 0 -19 101 -119 121 -119 19 0
119 101 119 121 0 19 -101 119 -121 119 -8 0 -38 -24 -67 -53z"/>
<path d="M9212 4867 c-29 -29 -52 -59 -52 -68 0 -19 101 -119 121 -119 19 0
119 101 119 121 0 19 -101 119 -121 119 -8 0 -38 -24 -67 -53z"/>
<path d="M2822 4857 c-23 -23 -42 -49 -42 -57 0 -19 80 -100 99 -100 20 0 101
80 101 99 0 20 -80 101 -100 101 -9 0 -35 -19 -58 -43z"/>
<path d="M9862 4857 c-23 -23 -42 -49 -42 -57 0 -19 80 -100 99 -100 20 0 101
80 101 99 0 20 -80 101 -100 101 -9 0 -35 -19 -58 -43z"/>
<path d="M2190 4845 l-44 -45 39 -40 c21 -22 46 -40 55 -40 9 0 34 18 55 40
l39 40 -35 36 c-56 58 -60 58 -109 9z"/>
<path d="M10510 4845 l-44 -45 39 -40 c21 -22 46 -40 55 -40 9 0 34 18 55 40
l39 40 -35 36 c-56 58 -60 58 -109 9z"/>
<path d="M1560 4835 l-34 -35 37 -38 37 -37 37 37 37 38 -34 35 c-19 19 -37
35 -40 35 -3 0 -21 -16 -40 -35z"/>
<path d="M11160 4835 l-34 -35 37 -38 37 -37 37 37 37 38 -34 35 c-19 19 -37
35 -40 35 -3 0 -21 -16 -40 -35z"/>
<path d="M932 4827 c-20 -21 -21 -25 -6 -45 17 -24 43 -29 62 -10 17 17 15 42
-6 61 -24 22 -24 21 -50 -6z"/>
<path d="M11812 4827 c-20 -21 -21 -25 -6 -45 17 -24 43 -29 62 -10 17 17 15
42 -6 61 -24 22 -24 21 -50 -6z"/>
<path d="M300 4800 c0 -13 7 -20 20 -20 13 0 20 7 20 20 0 13 -7 20 -20 20
-13 0 -20 -7 -20 -20z"/>
<path d="M12460 4800 c0 -13 7 -20 20 -20 13 0 20 7 20 20 0 13 -7 20 -20 20
-13 0 -20 -7 -20 -20z"/>
<path d="M6282 4597 c-67 -67 -92 -99 -92 -117 0 -36 175 -210 210 -210 36 0
210 175 210 210 0 36 -175 210 -210 210 -19 0 -50 -25 -118 -93z"/>
<path d="M5647 4592 c-64 -64 -87 -94 -87 -113 0 -34 166 -199 201 -199 33 0
199 167 199 200 0 35 -165 200 -200 200 -19 0 -49 -23 -113 -88z"/>
<path d="M6927 4592 c-64 -64 -87 -94 -87 -113 0 -34 166 -199 201 -199 33 0
199 167 199 200 0 35 -165 200 -200 200 -19 0 -49 -23 -113 -88z"/>
<path d="M5018 4582 c-53 -54 -78 -86 -78 -102 0 -16 25 -48 78 -102 54 -53
86 -78 102 -78 33 0 180 147 180 180 0 33 -147 180 -180 180 -16 0 -48 -25
-102 -78z"/>
<path d="M7578 4582 c-53 -54 -78 -86 -78 -102 0 -33 147 -180 180 -180 33 0
180 147 180 180 0 33 -147 180 -180 180 -16 0 -48 -25 -102 -78z"/>
<path d="M4392 4567 c-39 -40 -72 -79 -72 -87 0 -20 141 -160 160 -160 20 0
160 140 160 160 0 20 -141 160 -160 160 -9 0 -48 -33 -88 -73z"/>
<path d="M8232 4567 c-39 -40 -72 -79 -72 -87 0 -20 141 -160 160 -160 20 0
160 140 160 160 0 20 -141 160 -160 160 -9 0 -48 -33 -88 -73z"/>
<path d="M3762 4557 c-34 -34 -62 -69 -62 -78 0 -19 121 -139 141 -139 19 0
139 121 139 141 0 19 -121 139 -141 139 -8 0 -43 -28 -77 -63z"/>
<path d="M8882 4557 c-34 -34 -62 -69 -62 -78 0 -19 121 -139 141 -139 19 0
139 121 139 141 0 19 -121 139 -141 139 -8 0 -43 -28 -77 -63z"/>
<path d="M3132 4547 c-29 -29 -52 -59 -52 -68 0 -19 101 -119 121 -119 19 0
119 101 119 121 0 19 -101 119 -121 119 -8 0 -38 -24 -67 -53z"/>
<path d="M9532 4547 c-29 -29 -52 -59 -52 -68 0 -19 101 -119 121 -119 19 0
119 101 119 121 0 19 -101 119 -121 119 -8 0 -38 -24 -67 -53z"/>
<path d="M2502 4537 c-23 -23 -42 -49 -42 -57 0 -19 80 -100 99 -100 20 0 101
80 101 99 0 20 -80 101 -100 101 -9 0 -35 -19 -58 -43z"/>
<path d="M10182 4537 c-23 -23 -42 -49 -42 -57 0 -19 80 -100 99 -100 20 0
101 80 101 99 0 20 -80 101 -100 101 -9 0 -35 -19 -58 -43z"/>
<path d="M1874 4526 c-19 -19 -34 -38 -34 -43 0 -5 18 -27 40 -48 l40 -39 40
39 c22 21 40 43 40 48 0 13 -66 77 -80 77 -7 0 -27 -15 -46 -34z"/>
<path d="M10834 4526 c-19 -19 -34 -38 -34 -43 0 -5 18 -27 40 -48 l40 -39 40
39 c22 21 40 43 40 48 0 13 -66 77 -80 77 -7 0 -27 -15 -46 -34z"/>
<path d="M1245 4510 l-29 -30 32 -33 32 -32 32 32 32 33 -29 30 c-16 16 -32
30 -35 30 -3 0 -19 -14 -35 -30z"/>
<path d="M11485 4510 l-29 -30 32 -33 32 -32 32 32 32 33 -29 30 c-16 16 -32
30 -35 30 -3 0 -19 -14 -35 -30z"/>
<path d="M615 4500 c-18 -20 -18 -21 3 -43 l22 -21 22 21 c21 22 21 23 3 43
-10 11 -21 20 -25 20 -4 0 -15 -9 -25 -20z"/>
<path d="M12135 4500 c-18 -20 -18 -21 3 -43 l22 -21 22 21 c21 22 21 23 3 43
-10 11 -21 20 -25 20 -4 0 -15 -9 -25 -20z"/>
<path d="M0 4480 c0 -19 3 -21 12 -12 9 9 9 15 0 24 -9 9 -12 7 -12 -12z"/>
<path d="M12784 4489 c-3 -6 -1 -16 5 -22 8 -8 11 -5 11 11 0 24 -5 28 -16 11z"/>
<path d="M5982 4257 c-45 -45 -82 -89 -82 -97 0 -20 161 -180 180 -180 20 0
180 161 180 180 0 20 -161 180 -180 180 -9 0 -52 -37 -98 -83z"/>
<path d="M6622 4257 c-45 -45 -82 -89 -82 -97 0 -20 161 -180 180 -180 20 0
180 161 180 180 0 20 -161 180 -180 180 -9 0 -52 -37 -98 -83z"/>
<path d="M5352 4247 c-39 -40 -72 -79 -72 -87 0 -20 141 -160 160 -160 20 0
160 140 160 160 0 20 -141 160 -160 160 -9 0 -48 -33 -88 -73z"/>
<path d="M7272 4247 c-39 -40 -72 -79 -72 -87 0 -20 141 -160 160 -160 20 0
160 140 160 160 0 20 -141 160 -160 160 -9 0 -48 -33 -88 -73z"/>
<path d="M4722 4237 c-34 -34 -62 -69 -62 -78 0 -19 121 -139 141 -139 19 0
139 121 139 141 0 19 -121 139 -141 139 -8 0 -43 -28 -77 -63z"/>
<path d="M7922 4237 c-34 -34 -62 -69 -62 -78 0 -19 121 -139 141 -139 19 0
139 121 139 141 0 19 -121 139 -141 139 -8 0 -43 -28 -77 -63z"/>
<path d="M4088 4232 c-32 -33 -58 -65 -58 -72 0 -17 113 -130 129 -130 16 0
131 115 131 131 0 16 -113 129 -130 129 -7 0 -39 -26 -72 -58z"/>
<path d="M8568 4232 c-32 -33 -58 -65 -58 -72 0 -17 113 -130 129 -130 16 0
131 115 131 131 0 16 -113 129 -130 129 -7 0 -39 -26 -72 -58z"/>
<path d="M3459 4221 c-27 -26 -49 -54 -49 -61 0 -7 22 -35 49 -61 26 -27 54
-49 61 -49 7 0 35 22 61 49 27 26 49 54 49 61 0 7 -22 35 -49 61 -26 27 -54
49 -61 49 -7 0 -35 -22 -61 -49z"/>
<path d="M9219 4221 c-27 -26 -49 -54 -49 -61 0 -17 93 -110 110 -110 17 0
110 93 110 110 0 17 -93 110 -110 110 -7 0 -35 -22 -61 -49z"/>
<path d="M2827 4212 c-20 -21 -37 -45 -37 -53 0 -19 71 -89 91 -89 19 0 89 71
89 91 0 19 -71 89 -91 89 -8 0 -32 -17 -52 -38z"/>
<path d="M9867 4212 c-20 -21 -37 -45 -37 -53 0 -19 71 -89 91 -89 19 0 89 71
89 91 0 19 -71 89 -91 89 -8 0 -32 -17 -52 -38z"/>
<path d="M2197 4202 c-15 -15 -27 -35 -27 -43 0 -19 51 -69 70 -69 19 0 70 50
70 69 0 20 -50 71 -70 71 -9 0 -28 -13 -43 -28z"/>
<path d="M10517 4202 c-15 -15 -27 -35 -27 -43 0 -19 51 -69 70 -69 19 0 70
50 70 69 0 20 -50 71 -70 71 -9 0 -28 -13 -43 -28z"/>
<path d="M1565 4190 l-29 -30 32 -33 32 -32 32 32 32 33 -29 30 c-16 16 -32
30 -35 30 -3 0 -19 -14 -35 -30z"/>
<path d="M11165 4190 l-29 -30 32 -33 32 -32 32 32 32 33 -29 30 c-16 16 -32
30 -35 30 -3 0 -19 -14 -35 -30z"/>
<path d="M935 4180 c-18 -20 -18 -21 3 -43 l22 -21 22 21 c21 22 21 23 3 43
-10 11 -21 20 -25 20 -4 0 -15 -9 -25 -20z"/>
<path d="M11815 4180 c-18 -20 -18 -21 3 -43 l22 -21 22 21 c21 22 21 23 3 43
-10 11 -21 20 -25 20 -4 0 -15 -9 -25 -20z"/>
<path d="M304 4169 c-10 -17 13 -36 27 -22 12 12 4 33 -11 33 -5 0 -12 -5 -16
-11z"/>
<path d="M12464 4169 c-10 -17 13 -36 27 -22 12 12 4 33 -11 33 -5 0 -12 -5
-16 -11z"/>
<path d="M6298 3942 c-48 -49 -88 -94 -88 -102 0 -18 172 -190 190 -190 18 0
190 172 190 190 0 18 -172 190 -190 190 -8 0 -53 -40 -102 -88z"/>
<path d="M5663 3937 c-46 -46 -83 -89 -83 -97 0 -18 162 -180 180 -180 18 0
180 162 180 180 0 18 -162 180 -180 180 -8 0 -51 -37 -97 -83z"/>
<path d="M6943 3937 c-46 -46 -83 -89 -83 -97 0 -18 162 -180 180 -180 18 0
180 162 180 180 0 18 -162 180 -180 180 -8 0 -51 -37 -97 -83z"/>
<path d="M5032 3927 c-39 -40 -72 -79 -72 -87 0 -20 141 -160 160 -160 20 0
160 140 160 160 0 20 -141 160 -160 160 -9 0 -48 -33 -88 -73z"/>
<path d="M7592 3927 c-39 -40 -72 -79 -72 -87 0 -20 141 -160 160 -160 20 0
160 140 160 160 0 20 -141 160 -160 160 -9 0 -48 -33 -88 -73z"/>
<path d="M4402 3917 c-34 -34 -62 -69 -62 -78 0 -19 121 -139 141 -139 19 0
139 121 139 141 0 19 -121 139 -141 139 -8 0 -43 -28 -77 -63z"/>
<path d="M8242 3917 c-34 -34 -62 -69 -62 -78 0 -19 121 -139 141 -139 19 0
139 121 139 141 0 19 -121 139 -141 139 -8 0 -43 -28 -77 -63z"/>
<path d="M3772 3907 c-29 -29 -52 -59 -52 -68 0 -19 101 -119 121 -119 19 0
119 101 119 121 0 19 -101 119 -121 119 -8 0 -38 -24 -67 -53z"/>
<path d="M8892 3907 c-29 -29 -52 -59 -52 -68 0 -19 101 -119 121 -119 19 0
119 101 119 121 0 19 -101 119 -121 119 -8 0 -38 -24 -67 -53z"/>
<path d="M3140 3895 l-55 -55 58 -58 57 -57 57 57 58 58 -55 55 c-30 30 -57
55 -60 55 -3 0 -30 -25 -60 -55z"/>
<path d="M9540 3895 l-55 -55 58 -58 57 -57 57 57 58 58 -55 55 c-30 30 -57
55 -60 55 -3 0 -30 -25 -60 -55z"/>
<path d="M2510 3885 l-44 -45 47 -48 47 -47 47 47 47 48 -44 45 c-24 25 -47
45 -50 45 -3 0 -26 -20 -50 -45z"/>
<path d="M10190 3885 l-44 -45 47 -48 47 -47 47 47 47 48 -44 45 c-24 25 -47
45 -50 45 -3 0 -26 -20 -50 -45z"/>
<path d="M1880 3875 l-34 -35 37 -38 37 -37 37 37 37 38 -34 35 c-19 19 -37
35 -40 35 -3 0 -21 -16 -40 -35z"/>
<path d="M10840 3875 l-34 -35 37 -38 37 -37 37 37 37 38 -34 35 c-19 19 -37
35 -40 35 -3 0 -21 -16 -40 -35z"/>
<path d="M1250 3865 l-24 -26 27 -27 27 -27 27 27 27 27 -24 26 c-13 14 -26
25 -30 25 -4 0 -17 -11 -30 -25z"/>
<path d="M11490 3865 l-24 -26 27 -27 27 -27 27 27 27 27 -24 26 c-13 14 -26
25 -30 25 -4 0 -17 -11 -30 -25z"/>
<path d="M620 3854 c-11 -12 -10 -18 3 -32 16 -15 18 -15 34 0 13 14 14 20 3
32 -7 9 -16 16 -20 16 -4 0 -13 -7 -20 -16z"/>
<path d="M12140 3854 c-11 -12 -10 -18 3 -32 16 -15 18 -15 34 0 13 14 14 20
3 32 -7 9 -16 16 -20 16 -4 0 -13 -7 -20 -16z"/>
<path d="M5992 3607 c-41 -42 -62 -71 -62 -86 0 -33 118 -151 150 -151 33 0
150 118 150 151 0 34 -116 149 -151 149 -17 0 -43 -19 -87 -63z"/>
<path d="M6632 3607 c-41 -42 -62 -71 -62 -86 0 -33 118 -151 150 -151 33 0
150 118 150 151 0 34 -116 149 -151 149 -17 0 -43 -19 -87 -63z"/>
<path d="M5362 3597 c-34 -34 -62 -69 -62 -78 0 -19 121 -139 141 -139 19 0
139 121 139 141 0 19 -121 139 -141 139 -8 0 -43 -28 -77 -63z"/>
<path d="M7282 3597 c-34 -34 -62 -69 -62 -78 0 -19 121 -139 141 -139 19 0
139 121 139 141 0 19 -121 139 -141 139 -8 0 -43 -28 -77 -63z"/>
<path d="M4732 3587 c-29 -29 -52 -59 -52 -68 0 -19 101 -119 121 -119 19 0
119 101 119 121 0 19 -101 119 -121 119 -8 0 -38 -24 -67 -53z"/>
<path d="M7932 3587 c-29 -29 -52 -59 -52 -68 0 -19 101 -119 121 -119 19 0
119 101 119 121 0 19 -101 119 -121 119 -8 0 -38 -24 -67 -53z"/>
<path d="M4099 3581 c-27 -26 -49 -54 -49 -61 0 -7 22 -35 49 -61 26 -27 54
-49 61 -49 7 0 35 22 61 49 27 26 49 54 49 61 0 7 -22 35 -49 61 -26 27 -54
49 -61 49 -7 0 -35 -22 -61 -49z"/>
<path d="M8579 3581 c-27 -26 -49 -54 -49 -61 0 -17 93 -110 110 -110 17 0
110 93 110 110 0 17 -93 110 -110 110 -7 0 -35 -22 -61 -49z"/>
<path d="M3467 3572 c-20 -21 -37 -45 -37 -53 0 -19 71 -89 91 -89 19 0 89 71
89 91 0 19 -71 89 -91 89 -8 0 -32 -17 -52 -38z"/>
<path d="M9227 3572 c-20 -21 -37 -45 -37 -53 0 -19 71 -89 91 -89 19 0 89 71
89 91 0 19 -71 89 -91 89 -8 0 -32 -17 -52 -38z"/>
<path d="M2835 3560 l-39 -40 42 -43 42 -42 42 42 42 43 -39 40 c-21 22 -42
40 -45 40 -3 0 -24 -18 -45 -40z"/>
<path d="M9875 3560 l-39 -40 42 -43 42 -42 42 42 42 43 -39 40 c-21 22 -42
40 -45 40 -3 0 -24 -18 -45 -40z"/>
<path d="M2202 3557 c-28 -30 -28 -48 1 -75 30 -28 48 -28 75 1 28 30 28 48
-1 75 -30 28 -48 28 -75 -1z"/>
<path d="M10522 3557 c-28 -30 -28 -48 1 -75 30 -28 48 -28 75 1 28 30 28 48
-1 75 -30 28 -48 28 -75 -1z"/>
<path d="M1570 3545 l-24 -26 27 -27 27 -27 27 27 27 27 -24 26 c-13 14 -26
25 -30 25 -4 0 -17 -11 -30 -25z"/>
<path d="M11170 3545 l-24 -26 27 -27 27 -27 27 27 27 27 -24 26 c-13 14 -26
25 -30 25 -4 0 -17 -11 -30 -25z"/>
<path d="M940 3534 c-11 -12 -10 -18 3 -32 16 -15 18 -15 34 0 13 14 14 20 3
32 -7 9 -16 16 -20 16 -4 0 -13 -7 -20 -16z"/>
<path d="M11820 3534 c-11 -12 -10 -18 3 -32 16 -15 18 -15 34 0 13 14 14 20
3 32 -7 9 -16 16 -20 16 -4 0 -13 -7 -20 -16z"/>
<path d="M310 3520 c0 -5 5 -10 10 -10 6 0 10 5 10 10 0 6 -4 10 -10 10 -5 0
-10 -4 -10 -10z"/>
<path d="M12470 3520 c0 -5 5 -10 10 -10 6 0 10 5 10 10 0 6 -4 10 -10 10 -5
0 -10 -4 -10 -10z"/>
<path d="M6312 3287 c-39 -40 -72 -79 -72 -87 0 -20 141 -160 160 -160 20 0
160 140 160 160 0 20 -141 160 -160 160 -9 0 -48 -33 -88 -73z"/>
<path d="M5677 3282 c-37 -37 -67 -74 -67 -83 0 -19 131 -149 151 -149 19 0
149 131 149 151 0 19 -131 149 -151 149 -8 0 -45 -30 -82 -68z"/>
<path d="M6957 3282 c-37 -37 -67 -74 -67 -83 0 -19 131 -149 151 -149 19 0
149 131 149 151 0 19 -131 149 -151 149 -8 0 -45 -30 -82 -68z"/>
<path d="M5043 3277 c-34 -35 -63 -70 -63 -77 0 -7 29 -42 63 -77 35 -34 70
-63 77 -63 17 0 140 123 140 140 0 17 -123 140 -140 140 -7 0 -42 -28 -77 -63z"/>
<path d="M7603 3277 c-34 -35 -63 -70 -63 -77 0 -17 123 -140 140 -140 17 0
140 123 140 140 0 17 -123 140 -140 140 -7 0 -42 -28 -77 -63z"/>
<path d="M4412 3267 c-29 -29 -52 -59 -52 -68 0 -19 101 -119 121 -119 19 0
119 101 119 121 0 19 -101 119 -121 119 -8 0 -38 -24 -67 -53z"/>
<path d="M8252 3267 c-29 -29 -52 -59 -52 -68 0 -19 101 -119 121 -119 19 0
119 101 119 121 0 19 -101 119 -121 119 -8 0 -38 -24 -67 -53z"/>
<path d="M3780 3255 l-55 -55 58 -58 57 -57 57 57 58 58 -55 55 c-30 30 -57
55 -60 55 -3 0 -30 -25 -60 -55z"/>
<path d="M8900 3255 l-55 -55 58 -58 57 -57 57 57 58 58 -55 55 c-30 30 -57
55 -60 55 -3 0 -30 -25 -60 -55z"/>
<path d="M3149 3251 c-22 -21 -39 -43 -39 -47 0 -11 79 -94 89 -94 4 0 26 20
50 44 37 37 41 47 32 64 -13 24 -68 72 -83 72 -6 0 -28 -17 -49 -39z"/>
<path d="M9549 3251 c-22 -21 -39 -43 -39 -47 0 -11 79 -94 89 -94 4 0 26 20
50 44 37 37 41 47 32 64 -13 24 -68 72 -83 72 -6 0 -28 -17 -49 -39z"/>
<path d="M2517 3242 c-15 -15 -27 -35 -27 -43 0 -19 51 -69 70 -69 19 0 70 50
70 69 0 20 -50 71 -70 71 -9 0 -28 -13 -43 -28z"/>
<path d="M10197 3242 c-15 -15 -27 -35 -27 -43 0 -19 51 -69 70 -69 19 0 70
50 70 69 0 20 -50 71 -70 71 -9 0 -28 -13 -43 -28z"/>
<path d="M1885 3230 l-29 -30 32 -33 32 -32 32 32 32 33 -29 30 c-16 16 -32
30 -35 30 -3 0 -19 -14 -35 -30z"/>
<path d="M10845 3230 l-29 -30 32 -33 32 -32 32 32 32 33 -29 30 c-16 16 -32
30 -35 30 -3 0 -19 -14 -35 -30z"/>
<path d="M1255 3220 c-18 -20 -18 -21 3 -43 l22 -21 22 21 c21 22 21 23 3 43
-10 11 -21 20 -25 20 -4 0 -15 -9 -25 -20z"/>
<path d="M11495 3220 c-18 -20 -18 -21 3 -43 l22 -21 22 21 c21 22 21 23 3 43
-10 11 -21 20 -25 20 -4 0 -15 -9 -25 -20z"/>
<path d="M620 3200 c0 -13 7 -20 20 -20 13 0 20 7 20 20 0 13 -7 20 -20 20
-13 0 -20 -7 -20 -20z"/>
<path d="M12140 3200 c0 -13 7 -20 20 -20 13 0 20 7 20 20 0 13 -7 20 -20 20
-13 0 -20 -7 -20 -20z"/>
<path d="M6007 2952 c-31 -32 -57 -64 -57 -73 0 -19 111 -129 131 -129 19 0
129 111 129 131 0 19 -111 129 -131 129 -8 0 -40 -26 -72 -58z"/>
<path d="M6647 2952 c-31 -32 -57 -64 -57 -73 0 -19 111 -129 131 -129 19 0
129 111 129 131 0 19 -111 129 -131 129 -8 0 -40 -26 -72 -58z"/>
<path d="M5373 2947 c-29 -30 -53 -60 -53 -67 0 -17 103 -120 120 -120 17 0
120 103 120 120 0 17 -103 120 -120 120 -7 0 -37 -24 -67 -53z"/>
<path d="M7293 2947 c-29 -30 -53 -60 -53 -67 0 -17 103 -120 120 -120 17 0
120 103 120 120 0 17 -103 120 -120 120 -7 0 -37 -24 -67 -53z"/>
<path d="M4742 2937 c-23 -23 -42 -49 -42 -57 0 -19 80 -100 99 -100 20 0 101
80 101 99 0 20 -80 101 -100 101 -9 0 -35 -19 -58 -43z"/>
<path d="M7942 2937 c-23 -23 -42 -49 -42 -57 0 -19 80 -100 99 -100 20 0 101
80 101 99 0 20 -80 101 -100 101 -9 0 -35 -19 -58 -43z"/>
<path d="M4107 2932 c-20 -21 -37 -45 -37 -53 0 -19 71 -89 91 -89 19 0 89 71
89 91 0 19 -71 89 -91 89 -8 0 -32 -17 -52 -38z"/>
<path d="M8587 2932 c-20 -21 -37 -45 -37 -53 0 -19 71 -89 91 -89 19 0 89 71
89 91 0 19 -71 89 -91 89 -8 0 -32 -17 -52 -38z"/>
<path d="M3475 2920 l-39 -40 42 -43 42 -42 42 42 42 43 -39 40 c-21 22 -42
40 -45 40 -3 0 -24 -18 -45 -40z"/>
<path d="M9235 2920 l-39 -40 42 -43 42 -42 42 42 42 43 -39 40 c-21 22 -42
40 -45 40 -3 0 -24 -18 -45 -40z"/>
<path d="M2842 2917 c-28 -30 -28 -48 1 -75 30 -28 48 -28 75 1 28 30 28 48
-1 75 -30 28 -48 28 -75 -1z"/>
<path d="M9882 2917 c-28 -30 -28 -48 1 -75 30 -28 48 -28 75 1 28 30 28 48
-1 75 -30 28 -48 28 -75 -1z"/>
<path d="M2210 2910 c-26 -26 -25 -32 5 -60 l25 -23 25 23 c14 13 25 27 25 32
0 11 -38 48 -50 48 -5 0 -19 -9 -30 -20z"/>
<path d="M10530 2910 c-26 -26 -25 -32 5 -60 l25 -23 25 23 c14 13 25 27 25
32 0 11 -38 48 -50 48 -5 0 -19 -9 -30 -20z"/>
<path d="M1575 2900 c-18 -20 -18 -21 3 -43 l22 -21 22 21 c21 22 21 23 3 43
-10 11 -21 20 -25 20 -4 0 -15 -9 -25 -20z"/>
<path d="M11175 2900 c-18 -20 -18 -21 3 -43 l22 -21 22 21 c21 22 21 23 3 43
-10 11 -21 20 -25 20 -4 0 -15 -9 -25 -20z"/>
<path d="M940 2880 c0 -13 7 -20 20 -20 13 0 20 7 20 20 0 13 -7 20 -20 20
-13 0 -20 -7 -20 -20z"/>
<path d="M11820 2880 c0 -13 7 -20 20 -20 13 0 20 7 20 20 0 13 -7 20 -20 20
-13 0 -20 -7 -20 -20z"/>
<path d="M310 2880 c0 -5 5 -10 10 -10 6 0 10 5 10 10 0 6 -4 10 -10 10 -5 0
-10 -4 -10 -10z"/>
<path d="M12470 2880 c0 -5 5 -10 10 -10 6 0 10 5 10 10 0 6 -4 10 -10 10 -5
0 -10 -4 -10 -10z"/>
<path d="M5688 2632 c-32 -33 -58 -65 -58 -72 0 -17 113 -130 130 -130 17 0
130 113 130 130 0 17 -113 130 -130 130 -7 0 -39 -26 -72 -58z"/>
<path d="M6327 2632 c-31 -32 -57 -64 -57 -73 0 -19 111 -129 131 -129 19 0
129 111 129 131 0 19 -111 129 -131 129 -8 0 -40 -26 -72 -58z"/>
<path d="M6968 2632 c-32 -33 -58 -65 -58 -72 0 -17 113 -130 130 -130 17 0
130 113 130 130 0 17 -113 130 -130 130 -7 0 -39 -26 -72 -58z"/>
<path d="M5057 2622 c-26 -26 -47 -54 -47 -63 0 -19 91 -109 111 -109 19 0
109 91 109 111 0 19 -91 109 -111 109 -8 0 -36 -22 -62 -48z"/>
<path d="M7617 2622 c-26 -26 -47 -54 -47 -63 0 -19 91 -109 111 -109 19 0
109 91 109 111 0 19 -91 109 -111 109 -8 0 -36 -22 -62 -48z"/>
<path d="M4422 2617 c-23 -23 -42 -49 -42 -57 0 -19 80 -100 99 -100 20 0 101
80 101 99 0 20 -80 101 -100 101 -9 0 -35 -19 -58 -43z"/>
<path d="M8262 2617 c-23 -23 -42 -49 -42 -57 0 -19 80 -100 99 -100 20 0 101
80 101 99 0 20 -80 101 -100 101 -9 0 -35 -19 -58 -43z"/>
<path d="M3790 2605 l-44 -45 47 -48 47 -47 47 47 47 48 -44 45 c-24 25 -47
45 -50 45 -3 0 -26 -20 -50 -45z"/>
<path d="M8910 2605 l-44 -45 47 -48 47 -47 47 47 47 48 -44 45 c-24 25 -47
45 -50 45 -3 0 -26 -20 -50 -45z"/>
<path d="M3157 2602 c-15 -15 -27 -35 -27 -43 0 -19 51 -69 70 -69 19 0 70 50
70 69 0 20 -50 71 -70 71 -9 0 -28 -13 -43 -28z"/>
<path d="M9557 2602 c-15 -15 -27 -35 -27 -43 0 -19 51 -69 70 -69 19 0 70 50
70 69 0 20 -50 71 -70 71 -9 0 -28 -13 -43 -28z"/>
<path d="M2525 2590 l-29 -30 32 -33 32 -32 32 32 32 33 -29 30 c-16 16 -32
30 -35 30 -3 0 -19 -14 -35 -30z"/>
<path d="M10205 2590 l-29 -30 32 -33 32 -32 32 32 32 33 -29 30 c-16 16 -32
30 -35 30 -3 0 -19 -14 -35 -30z"/>
<path d="M1890 2585 l-24 -26 27 -27 27 -27 27 27 27 27 -24 26 c-13 14 -26
25 -30 25 -4 0 -17 -11 -30 -25z"/>
<path d="M10850 2585 l-24 -26 27 -27 27 -27 27 27 27 27 -24 26 c-13 14 -26
25 -30 25 -4 0 -17 -11 -30 -25z"/>
<path d="M1260 2574 c-11 -12 -10 -18 3 -32 16 -15 18 -15 34 0 13 14 14 20 3
32 -7 9 -16 16 -20 16 -4 0 -13 -7 -20 -16z"/>
<path d="M11500 2574 c-11 -12 -10 -18 3 -32 16 -15 18 -15 34 0 13 14 14 20
3 32 -7 9 -16 16 -20 16 -4 0 -13 -7 -20 -16z"/>
<path d="M624 2569 c-10 -17 13 -36 27 -22 12 12 4 33 -11 33 -5 0 -12 -5 -16
-11z"/>
<path d="M12144 2569 c-10 -17 13 -36 27 -22 12 12 4 33 -11 33 -5 0 -12 -5
-16 -11z"/>
<path d="M6020 2295 l-55 -55 58 -58 57 -57 57 57 58 58 -55 55 c-30 30 -57
55 -60 55 -3 0 -30 -25 -60 -55z"/>
<path d="M6660 2295 l-55 -55 58 -58 57 -57 57 57 58 58 -55 55 c-30 30 -57
55 -60 55 -3 0 -30 -25 -60 -55z"/>
<path d="M5385 2290 l-50 -50 53 -53 52 -52 52 52 53 53 -50 50 c-27 27 -52
50 -55 50 -3 0 -28 -23 -55 -50z"/>
<path d="M7305 2290 l-50 -50 53 -53 52 -52 52 52 53 53 -50 50 c-27 27 -52
50 -55 50 -3 0 -28 -23 -55 -50z"/>
<path d="M4750 2285 l-44 -45 39 -40 c21 -22 46 -40 55 -40 9 0 34 18 55 40
l39 40 -35 36 c-56 58 -60 58 -109 9z"/>
<path d="M7950 2285 l-44 -45 39 -40 c21 -22 46 -40 55 -40 9 0 34 18 55 40
l39 40 -35 36 c-56 58 -60 58 -109 9z"/>
<path d="M4117 2282 c-15 -15 -27 -35 -27 -43 0 -19 51 -69 70 -69 19 0 70 50
70 69 0 20 -50 71 -70 71 -9 0 -28 -13 -43 -28z"/>
<path d="M8597 2282 c-15 -15 -27 -35 -27 -43 0 -19 51 -69 70 -69 19 0 70 50
70 69 0 20 -50 71 -70 71 -9 0 -28 -13 -43 -28z"/>
<path d="M3482 2277 c-28 -30 -28 -48 1 -75 30 -28 48 -28 75 1 28 30 28 48
-1 75 -30 28 -48 28 -75 -1z"/>
<path d="M9242 2277 c-28 -30 -28 -48 1 -75 30 -28 48 -28 75 1 28 30 28 48
-1 75 -30 28 -48 28 -75 -1z"/>
<path d="M2850 2270 c-26 -26 -25 -32 5 -60 l25 -23 25 23 c14 13 25 27 25 32
0 11 -38 48 -50 48 -5 0 -19 -9 -30 -20z"/>
<path d="M9890 2270 c-26 -26 -25 -32 5 -60 l25 -23 25 23 c14 13 25 27 25 32
0 11 -38 48 -50 48 -5 0 -19 -9 -30 -20z"/>
<path d="M2215 2260 c-18 -20 -18 -21 3 -43 l22 -21 22 21 c21 22 21 23 3 43
-10 11 -21 20 -25 20 -4 0 -15 -9 -25 -20z"/>
<path d="M10535 2260 c-18 -20 -18 -21 3 -43 l22 -21 22 21 c21 22 21 23 3 43
-10 11 -21 20 -25 20 -4 0 -15 -9 -25 -20z"/>
<path d="M1580 2254 c-11 -12 -10 -18 3 -32 16 -15 18 -15 34 0 13 14 14 20 3
32 -7 9 -16 16 -20 16 -4 0 -13 -7 -20 -16z"/>
<path d="M11180 2254 c-11 -12 -10 -18 3 -32 16 -15 18 -15 34 0 13 14 14 20
3 32 -7 9 -16 16 -20 16 -4 0 -13 -7 -20 -16z"/>
<path d="M944 2249 c-10 -17 13 -36 27 -22 12 12 4 33 -11 33 -5 0 -12 -5 -16
-11z"/>
<path d="M11824 2249 c-10 -17 13 -36 27 -22 12 12 4 33 -11 33 -5 0 -12 -5
-16 -11z"/>
<path d="M6340 1980 c-28 -27 -50 -53 -50 -57 0 -5 25 -33 55 -63 l55 -54 55
54 c30 30 55 58 55 63 0 12 -97 107 -110 107 -6 0 -33 -22 -60 -50z"/>
<path d="M5702 1977 c-23 -23 -42 -49 -42 -57 0 -19 80 -100 99 -100 20 0 101
80 101 99 0 20 -80 101 -100 101 -9 0 -35 -19 -58 -43z"/>
<path d="M6982 1977 c-23 -23 -42 -49 -42 -57 0 -19 80 -100 99 -100 20 0 101
80 101 99 0 20 -80 101 -100 101 -9 0 -35 -19 -58 -43z"/>
<path d="M5067 1972 c-20 -21 -37 -45 -37 -53 0 -19 71 -89 91 -89 19 0 89 71
89 91 0 19 -71 89 -91 89 -8 0 -32 -17 -52 -38z"/>
<path d="M7627 1972 c-20 -21 -37 -45 -37 -53 0 -19 71 -89 91 -89 19 0 89 71
89 91 0 19 -71 89 -91 89 -8 0 -32 -17 -52 -38z"/>
<path d="M4434 1966 c-19 -19 -34 -38 -34 -43 0 -5 18 -27 40 -48 l40 -39 40
39 c22 21 40 43 40 48 0 13 -66 77 -80 77 -7 0 -27 -15 -46 -34z"/>
<path d="M8274 1966 c-19 -19 -34 -38 -34 -43 0 -5 18 -27 40 -48 l40 -39 40
39 c22 21 40 43 40 48 0 13 -66 77 -80 77 -7 0 -27 -15 -46 -34z"/>
<path d="M3800 1955 l-34 -35 37 -38 37 -37 37 37 37 38 -34 35 c-19 19 -37
35 -40 35 -3 0 -21 -16 -40 -35z"/>
<path d="M8920 1955 l-34 -35 37 -38 37 -37 37 37 37 38 -34 35 c-19 19 -37
35 -40 35 -3 0 -21 -16 -40 -35z"/>
<path d="M3165 1950 l-29 -30 32 -33 32 -32 32 32 32 33 -29 30 c-16 16 -32
30 -35 30 -3 0 -19 -14 -35 -30z"/>
<path d="M9565 1950 l-29 -30 32 -33 32 -32 32 32 32 33 -29 30 c-16 16 -32
30 -35 30 -3 0 -19 -14 -35 -30z"/>
<path d="M2530 1945 l-24 -26 27 -27 27 -27 27 27 27 27 -24 26 c-13 14 -26
25 -30 25 -4 0 -17 -11 -30 -25z"/>
<path d="M10210 1945 l-24 -26 27 -27 27 -27 27 27 27 27 -24 26 c-13 14 -26
25 -30 25 -4 0 -17 -11 -30 -25z"/>
<path d="M1894 1936 c-10 -26 4 -48 28 -44 17 2 23 10 23 28 0 18 -6 26 -23
28 -13 2 -25 -3 -28 -12z"/>
<path d="M10854 1936 c-10 -26 4 -48 28 -44 17 2 23 10 23 28 0 18 -6 26 -23
28 -13 2 -25 -3 -28 -12z"/>
<path d="M1262 1923 c2 -10 10 -18 18 -18 8 0 16 8 18 18 2 12 -3 17 -18 17
-15 0 -20 -5 -18 -17z"/>
<path d="M11502 1923 c2 -10 10 -18 18 -18 8 0 16 8 18 18 2 12 -3 17 -18 17
-15 0 -20 -5 -18 -17z"/>
<path d="M630 1920 c0 -5 5 -10 10 -10 6 0 10 5 10 10 0 6 -4 10 -10 10 -5 0
-10 -4 -10 -10z"/>
<path d="M12150 1920 c0 -5 5 -10 10 -10 6 0 10 5 10 10 0 6 -4 10 -10 10 -5
0 -10 -4 -10 -10z"/>
<path d="M6032 1647 c-18 -18 -32 -40 -32 -48 0 -19 61 -79 81 -79 19 0 79 61
79 81 0 19 -61 79 -81 79 -8 0 -29 -15 -47 -33z"/>
<path d="M6672 1647 c-18 -18 -32 -40 -32 -48 0 -19 61 -79 81 -79 19 0 79 61
79 81 0 19 -61 79 -81 79 -8 0 -29 -15 -47 -33z"/>
<path d="M4760 1635 l-34 -35 37 -38 37 -37 37 37 37 38 -34 35 c-19 19 -37
35 -40 35 -3 0 -21 -16 -40 -35z"/>
<path d="M5397 1642 c-15 -15 -27 -35 -27 -43 0 -19 51 -69 70 -69 19 0 70 50
70 69 0 20 -50 71 -70 71 -9 0 -28 -13 -43 -28z"/>
<path d="M7317 1642 c-15 -15 -27 -35 -27 -43 0 -19 51 -69 70 -69 19 0 70 50
70 69 0 20 -50 71 -70 71 -9 0 -28 -13 -43 -28z"/>
<path d="M7960 1635 l-34 -35 37 -38 37 -37 37 37 37 38 -34 35 c-19 19 -37
35 -40 35 -3 0 -21 -16 -40 -35z"/>
<path d="M4125 1630 l-29 -30 32 -33 32 -32 32 32 32 33 -29 30 c-16 16 -32
30 -35 30 -3 0 -19 -14 -35 -30z"/>
<path d="M8605 1630 l-29 -30 32 -33 32 -32 32 32 32 33 -29 30 c-16 16 -32
30 -35 30 -3 0 -19 -14 -35 -30z"/>
<path d="M3490 1625 l-24 -26 27 -27 27 -27 27 27 27 27 -24 26 c-13 14 -26
25 -30 25 -4 0 -17 -11 -30 -25z"/>
<path d="M9250 1625 l-24 -26 27 -27 27 -27 27 27 27 27 -24 26 c-13 14 -26
25 -30 25 -4 0 -17 -11 -30 -25z"/>
<path d="M2855 1620 c-18 -20 -18 -21 3 -43 l22 -21 22 21 c21 22 21 23 3 43
-10 11 -21 20 -25 20 -4 0 -15 -9 -25 -20z"/>
<path d="M9895 1620 c-18 -20 -18 -21 3 -43 l22 -21 22 21 c21 22 21 23 3 43
-10 11 -21 20 -25 20 -4 0 -15 -9 -25 -20z"/>
<path d="M2220 1614 c-11 -12 -10 -18 3 -32 16 -15 18 -15 34 0 13 14 14 20 3
32 -7 9 -16 16 -20 16 -4 0 -13 -7 -20 -16z"/>
<path d="M10540 1614 c-11 -12 -10 -18 3 -32 16 -15 18 -15 34 0 13 14 14 20
3 32 -7 9 -16 16 -20 16 -4 0 -13 -7 -20 -16z"/>
<path d="M1584 1609 c-10 -17 13 -36 27 -22 12 12 4 33 -11 33 -5 0 -12 -5
-16 -11z"/>
<path d="M11184 1609 c-10 -17 13 -36 27 -22 12 12 4 33 -11 33 -5 0 -12 -5
-16 -11z"/>
<path d="M950 1600 c0 -5 5 -10 10 -10 6 0 10 5 10 10 0 6 -4 10 -10 10 -5 0
-10 -4 -10 -10z"/>
<path d="M11830 1600 c0 -5 5 -10 10 -10 6 0 10 5 10 10 0 6 -4 10 -10 10 -5
0 -10 -4 -10 -10z"/>
<path d="M5715 1320 l-39 -40 42 -43 42 -42 42 42 42 43 -39 40 c-21 22 -42
40 -45 40 -3 0 -24 -18 -45 -40z"/>
<path d="M6352 1327 c-18 -18 -32 -40 -32 -48 0 -19 61 -79 81 -79 19 0 79 61
79 81 0 19 -61 79 -81 79 -8 0 -29 -15 -47 -33z"/>
<path d="M6995 1320 l-39 -40 42 -43 42 -42 42 42 42 43 -39 40 c-21 22 -42
40 -45 40 -3 0 -24 -18 -45 -40z"/>
<path d="M5080 1315 l-34 -35 37 -38 37 -37 37 37 37 38 -34 35 c-19 19 -37
35 -40 35 -3 0 -21 -16 -40 -35z"/>
<path d="M7640 1315 l-34 -35 37 -38 37 -37 37 37 37 38 -34 35 c-19 19 -37
35 -40 35 -3 0 -21 -16 -40 -35z"/>
<path d="M4445 1310 l-29 -30 32 -33 32 -32 32 32 32 33 -29 30 c-16 16 -32
30 -35 30 -3 0 -19 -14 -35 -30z"/>
<path d="M8285 1310 l-29 -30 32 -33 32 -32 32 32 32 33 -29 30 c-16 16 -32
30 -35 30 -3 0 -19 -14 -35 -30z"/>
<path d="M3810 1305 l-24 -26 27 -27 27 -27 27 27 27 27 -24 26 c-13 14 -26
25 -30 25 -4 0 -17 -11 -30 -25z"/>
<path d="M8930 1305 l-24 -26 27 -27 27 -27 27 27 27 27 -24 26 c-13 14 -26
25 -30 25 -4 0 -17 -11 -30 -25z"/>
<path d="M3175 1300 c-18 -20 -18 -21 3 -43 l22 -21 22 21 c21 22 21 23 3 43
-10 11 -21 20 -25 20 -4 0 -15 -9 -25 -20z"/>
<path d="M9575 1300 c-18 -20 -18 -21 3 -43 l22 -21 22 21 c21 22 21 23 3 43
-10 11 -21 20 -25 20 -4 0 -15 -9 -25 -20z"/>
<path d="M2540 1294 c-11 -12 -10 -18 3 -32 16 -15 18 -15 34 0 13 14 14 20 3
32 -7 9 -16 16 -20 16 -4 0 -13 -7 -20 -16z"/>
<path d="M10220 1294 c-11 -12 -10 -18 3 -32 16 -15 18 -15 34 0 13 14 14 20
3 32 -7 9 -16 16 -20 16 -4 0 -13 -7 -20 -16z"/>
<path d="M1902 1283 c2 -10 10 -18 18 -18 8 0 16 8 18 18 2 12 -3 17 -18 17
-15 0 -20 -5 -18 -17z"/>
<path d="M10862 1283 c2 -10 10 -18 18 -18 8 0 16 8 18 18 2 12 -3 17 -18 17
-15 0 -20 -5 -18 -17z"/>
<path d="M1270 1280 c0 -5 5 -10 10 -10 6 0 10 5 10 10 0 6 -4 10 -10 10 -5 0
-10 -4 -10 -10z"/>
<path d="M11510 1280 c0 -5 5 -10 10 -10 6 0 10 5 10 10 0 6 -4 10 -10 10 -5
0 -10 -4 -10 -10z"/>
<path d="M6045 990 l-29 -30 32 -33 32 -32 32 32 32 33 -29 30 c-16 16 -32 30
-35 30 -3 0 -19 -14 -35 -30z"/>
<path d="M6685 990 l-29 -30 32 -33 32 -32 32 32 32 33 -29 30 c-16 16 -32 30
-35 30 -3 0 -19 -14 -35 -30z"/>
<path d="M4772 987 c-20 -21 -21 -25 -6 -45 17 -24 43 -29 62 -10 17 17 15 42
-6 61 -24 22 -24 21 -50 -6z"/>
<path d="M5407 992 c-22 -24 -21 -45 1 -65 24 -22 45 -21 65 1 22 24 21 45 -1
65 -24 22 -45 21 -65 -1z"/>
<path d="M7327 992 c-22 -24 -21 -45 1 -65 24 -22 45 -21 65 1 22 24 21 45 -1
65 -24 22 -45 21 -65 -1z"/>
<path d="M7972 987 c-20 -21 -21 -25 -6 -45 17 -24 43 -29 62 -10 17 17 15 42
-6 61 -24 22 -24 21 -50 -6z"/>
<path d="M4135 980 c-18 -20 -18 -21 3 -43 l22 -21 22 21 c21 22 21 23 3 43
-10 11 -21 20 -25 20 -4 0 -15 -9 -25 -20z"/>
<path d="M8615 980 c-18 -20 -18 -21 3 -43 l22 -21 22 21 c21 22 21 23 3 43
-10 11 -21 20 -25 20 -4 0 -15 -9 -25 -20z"/>
<path d="M3500 974 c-11 -12 -10 -18 3 -32 16 -15 18 -15 34 0 13 14 14 20 3
32 -7 9 -16 16 -20 16 -4 0 -13 -7 -20 -16z"/>
<path d="M9260 974 c-11 -12 -10 -18 3 -32 16 -15 18 -15 34 0 13 14 14 20 3
32 -7 9 -16 16 -20 16 -4 0 -13 -7 -20 -16z"/>
<path d="M2224 969 c-10 -17 13 -36 27 -22 12 12 4 33 -11 33 -5 0 -12 -5 -16
-11z"/>
<path d="M2860 960 c0 -13 7 -20 20 -20 13 0 20 7 20 20 0 13 -7 20 -20 20
-13 0 -20 -7 -20 -20z"/>
<path d="M9900 960 c0 -13 7 -20 20 -20 13 0 20 7 20 20 0 13 -7 20 -20 20
-13 0 -20 -7 -20 -20z"/>
<path d="M10544 969 c-10 -17 13 -36 27 -22 12 12 4 33 -11 33 -5 0 -12 -5
-16 -11z"/>
<path d="M1590 960 c0 -5 5 -10 10 -10 6 0 10 5 10 10 0 6 -4 10 -10 10 -5 0
-10 -4 -10 -10z"/>
<path d="M11190 960 c0 -5 5 -10 10 -10 6 0 10 5 10 10 0 6 -4 10 -10 10 -5 0
-10 -4 -10 -10z"/>
<path d="M5730 665 l-24 -26 27 -27 27 -27 27 27 27 27 -24 26 c-13 14 -26 25
-30 25 -4 0 -17 -11 -30 -25z"/>
<path d="M6367 672 c-22 -24 -21 -45 1 -65 24 -22 45 -21 65 1 22 24 21 45 -1
65 -24 22 -45 21 -65 -1z"/>
<path d="M7010 665 l-24 -26 27 -27 27 -27 27 27 27 27 -24 26 c-13 14 -26 25
-30 25 -4 0 -17 -11 -30 -25z"/>
<path d="M4455 660 c-18 -20 -18 -21 3 -43 l22 -21 22 21 c21 22 21 23 3 43
-10 11 -21 20 -25 20 -4 0 -15 -9 -25 -20z"/>
<path d="M5090 665 c-26 -32 13 -81 48 -59 34 22 22 74 -18 74 -10 0 -23 -7
-30 -15z"/>
<path d="M7650 665 c-26 -32 13 -81 48 -59 34 22 22 74 -18 74 -10 0 -23 -7
-30 -15z"/>
<path d="M8295 660 c-18 -20 -18 -21 3 -43 l22 -21 22 21 c21 22 21 23 3 43
-10 11 -21 20 -25 20 -4 0 -15 -9 -25 -20z"/>
<path d="M3820 654 c-11 -12 -10 -18 3 -32 16 -15 18 -15 34 0 13 14 14 20 3
32 -7 9 -16 16 -20 16 -4 0 -13 -7 -20 -16z"/>
<path d="M8940 654 c-11 -12 -10 -18 3 -32 16 -15 18 -15 34 0 13 14 14 20 3
32 -7 9 -16 16 -20 16 -4 0 -13 -7 -20 -16z"/>
<path d="M2544 649 c-10 -17 13 -36 27 -22 12 12 4 33 -11 33 -5 0 -12 -5 -16
-11z"/>
<path d="M3180 640 c0 -13 7 -20 20 -20 13 0 20 7 20 20 0 13 -7 20 -20 20
-13 0 -20 -7 -20 -20z"/>
<path d="M9580 640 c0 -13 7 -20 20 -20 13 0 20 7 20 20 0 13 -7 20 -20 20
-13 0 -20 -7 -20 -20z"/>
<path d="M10224 649 c-10 -17 13 -36 27 -22 12 12 4 33 -11 33 -5 0 -12 -5
-16 -11z"/>
<path d="M1910 640 c0 -5 5 -10 10 -10 6 0 10 5 10 10 0 6 -4 10 -10 10 -5 0
-10 -4 -10 -10z"/>
<path d="M10870 640 c0 -5 5 -10 10 -10 6 0 10 5 10 10 0 6 -4 10 -10 10 -5 0
-10 -4 -10 -10z"/>
<path d="M5420 334 c-11 -12 -10 -18 3 -32 16 -15 18 -15 34 0 13 14 14 20 3
32 -7 9 -16 16 -20 16 -4 0 -13 -7 -20 -16z"/>
<path d="M6054 336 c-10 -26 4 -48 28 -44 17 2 23 10 23 28 0 18 -6 26 -23 28
-13 2 -25 -3 -28 -12z"/>
<path d="M6694 336 c-10 -26 4 -48 28 -44 17 2 23 10 23 28 0 18 -6 26 -23 28
-13 2 -25 -3 -28 -12z"/>
<path d="M7340 334 c-11 -12 -10 -18 3 -32 16 -15 18 -15 34 0 13 14 14 20 3
32 -7 9 -16 16 -20 16 -4 0 -13 -7 -20 -16z"/>
<path d="M4144 329 c-10 -17 13 -36 27 -22 12 12 4 33 -11 33 -5 0 -12 -5 -16
-11z"/>
<path d="M4780 320 c0 -13 7 -20 20 -20 13 0 20 7 20 20 0 13 -7 20 -20 20
-13 0 -20 -7 -20 -20z"/>
<path d="M7980 320 c0 -13 7 -20 20 -20 13 0 20 7 20 20 0 13 -7 20 -20 20
-13 0 -20 -7 -20 -20z"/>
<path d="M8624 329 c-10 -17 13 -36 27 -22 12 12 4 33 -11 33 -5 0 -12 -5 -16
-11z"/>
<path d="M2870 320 c0 -5 5 -10 10 -10 6 0 10 5 10 10 0 6 -4 10 -10 10 -5 0
-10 -4 -10 -10z"/>
<path d="M3510 320 c0 -5 5 -10 10 -10 6 0 10 5 10 10 0 6 -4 10 -10 10 -5 0
-10 -4 -10 -10z"/>
<path d="M9270 320 c0 -5 5 -10 10 -10 6 0 10 5 10 10 0 6 -4 10 -10 10 -5 0
-10 -4 -10 -10z"/>
<path d="M9910 320 c0 -5 5 -10 10 -10 6 0 10 5 10 10 0 6 -4 10 -10 10 -5 0
-10 -4 -10 -10z"/>
<path d="M6380 15 c-11 -13 -8 -15 20 -15 28 0 31 2 20 15 -7 8 -16 15 -20 15
-4 0 -13 -7 -20 -15z"/>
<path d="M4465 10 c-3 -5 3 -10 15 -10 12 0 18 5 15 10 -3 6 -10 10 -15 10 -5
0 -12 -4 -15 -10z"/>
<path d="M5105 10 c-3 -5 3 -10 15 -10 12 0 18 5 15 10 -3 6 -10 10 -15 10 -5
0 -12 -4 -15 -10z"/>
<path d="M5740 10 c0 -5 9 -10 20 -10 11 0 20 5 20 10 0 6 -9 10 -20 10 -11 0
-20 -4 -20 -10z"/>
<path d="M7020 10 c0 -5 9 -10 20 -10 11 0 20 5 20 10 0 6 -9 10 -20 10 -11 0
-20 -4 -20 -10z"/>
<path d="M7665 10 c-3 -5 3 -10 15 -10 12 0 18 5 15 10 -3 6 -10 10 -15 10 -5
0 -12 -4 -15 -10z"/>
<path d="M8305 10 c-3 -5 3 -10 15 -10 12 0 18 5 15 10 -3 6 -10 10 -15 10 -5
0 -12 -4 -15 -10z"/>
</g>
</svg>
